<?xml version="1.0" standalone="no"?>
<!DOCTYPE svg PUBLIC "-//W3C//DTD SVG 20010904//EN"
 "http://www.w3.org/TR/2001/REC-SVG-20010904/DTD/svg10.dtd">
<svg version="1.0" xmlns="http://www.w3.org/2000/svg"
 width="900.000000pt" height="1716.000000pt" viewBox="0 0 900.000000 1716.000000"
 preserveAspectRatio="xMidYMid meet">
<metadata>
Created by potrace 1.10, written by Peter Selinger 2001-2011
</metadata>
<g transform="translate(0.000000,1716.000000) scale(0.100000,-0.100000)"
fill="#000000" stroke="none">
<path d="M4833 16702 c-15 -10 -22 -63 -12 -89 7 -20 15 -23 64 -23 l55 0 0
50 c0 32 -5 52 -12 54 -30 9 -86 14 -95 8z"/>
<path d="M4048 16693 c-16 -4 -17 -28 -12 -336 3 -183 7 -338 10 -345 2 -9 20
-12 56 -10 l53 3 3 145 c2 100 6 147 15 152 7 4 87 8 180 8 l167 0 1 -102 c0
-57 4 -123 7 -148 l7 -45 50 0 50 0 3 290 c2 160 0 314 -3 343 l-7 53 -56 -3
-57 -3 3 -130 c2 -71 -1 -135 -5 -142 -6 -8 -64 -14 -175 -19 -200 -8 -188
-18 -188 155 0 109 -2 121 -19 131 -20 10 -52 11 -83 3z"/>
<path d="M6546 16512 c-3 -5 -8 -29 -11 -53 -15 -117 -51 -358 -76 -508 -17
-102 -15 -107 37 -115 27 -3 52 -2 59 4 7 6 18 52 24 103 12 86 18 129 55 367
25 159 27 197 10 204 -23 9 -92 7 -98 -2z"/>
<path d="M4825 16474 c-8 -9 -15 -33 -15 -57 0 -23 -5 -121 -10 -217 -6 -125
-6 -178 2 -188 7 -8 28 -12 57 -10 l46 3 6 60 c4 33 10 138 13 233 6 137 4
173 -6 176 -45 14 -78 14 -93 0z"/>
<path d="M5096 16459 c-11 -34 -36 -263 -38 -352 -1 -77 1 -101 13 -108 19
-12 86 -12 94 0 3 6 8 61 11 123 7 137 17 178 50 218 21 25 33 30 67 30 48 0
59 -6 77 -39 10 -19 10 -49 0 -150 -7 -69 -11 -144 -9 -166 4 -38 6 -40 48
-49 56 -12 71 5 71 83 0 31 7 98 15 150 17 115 40 146 106 146 33 0 46 -6 66
-30 28 -32 28 -52 4 -270 -11 -94 -2 -108 64 -103 l39 3 13 85 c7 47 15 128
19 180 5 83 3 101 -14 142 -28 64 -59 82 -141 82 -57 1 -74 -3 -109 -26 -49
-33 -59 -34 -66 -10 -3 9 -21 27 -39 40 -42 28 -144 31 -188 5 -27 -16 -29
-16 -42 1 -17 23 -104 35 -111 15z"/>
<path d="M3385 16432 c-43 -10 -91 -38 -99 -59 -7 -16 -9 -16 -25 5 -14 20
-24 23 -67 20 l-49 -3 0 -55 c1 -30 6 -100 13 -155 6 -55 14 -134 18 -177 6
-84 10 -88 77 -80 l39 4 -4 173 -3 173 29 31 c25 26 37 31 76 31 80 0 93 -29
110 -244 6 -84 14 -132 22 -138 12 -7 87 0 97 9 9 7 1 149 -15 263 -17 119
-30 153 -69 182 -25 19 -105 30 -150 20z"/>
<path d="M2963 16376 c-28 -14 -56 -34 -63 -45 -14 -28 -26 -26 -34 4 -5 21
-12 25 -44 25 -21 0 -47 -6 -57 -14 -18 -13 -18 -17 -2 -122 10 -60 17 -126
17 -147 0 -44 28 -178 40 -191 5 -5 30 -5 55 -1 l47 7 -6 46 c-3 26 -9 100
-12 165 -6 113 -6 119 16 142 13 13 46 32 74 41 73 23 80 32 61 77 -8 20 -21
37 -28 37 -6 0 -35 -11 -64 -24z"/>
<path d="M1905 16371 c-34 -5 -40 -10 -43 -33 -2 -15 1 -42 6 -61 12 -43 6
-53 -38 -64 -28 -7 -36 -15 -38 -37 -5 -37 11 -51 53 -48 42 4 52 -13 64 -105
27 -205 65 -253 198 -253 83 0 95 7 91 51 -3 33 -4 34 -53 37 -27 2 -56 9 -64
15 -30 25 -49 94 -53 188 -3 94 -3 94 22 97 71 8 86 21 74 68 -6 22 -11 24
-65 24 l-58 0 -18 62 c-10 34 -23 62 -28 63 -6 1 -28 -1 -50 -4z"/>
<path d="M6041 16371 c-58 -10 -76 -33 -55 -73 11 -21 20 -28 32 -23 36 14
157 16 182 3 29 -16 45 -55 37 -90 -6 -24 -7 -24 -124 -24 -131 1 -152 -6
-183 -57 -75 -122 82 -264 221 -201 41 18 49 15 62 -19 1 -5 24 -11 49 -14 54
-6 46 -22 72 147 22 141 21 237 -2 272 -35 53 -87 78 -171 83 -42 2 -96 0
-120 -4z m182 -278 c33 -20 -50 -123 -99 -123 -49 0 -70 10 -88 42 -16 26 -17
33 -5 55 8 14 23 29 34 34 19 8 141 2 158 -8z"/>
<path d="M2415 16310 c-88 -10 -151 -59 -179 -140 -34 -99 -10 -217 59 -286
49 -49 84 -59 190 -58 57 0 79 5 120 28 76 42 80 48 61 85 -9 17 -21 31 -27
31 -6 0 -31 -12 -56 -27 -86 -50 -210 -26 -228 45 -3 14 -1 30 5 36 10 10 112
29 235 44 58 7 60 8 63 39 5 46 -35 129 -80 167 -43 37 -79 45 -163 36z m93
-96 c27 -18 47 -57 39 -77 -6 -16 -99 -37 -164 -37 -55 0 -65 19 -36 69 37 64
103 82 161 45z"/>
<path d="M6818 16254 c-37 -7 -51 -27 -43 -62 l6 -29 104 1 c96 1 105 -1 129
-23 29 -27 33 -57 12 -86 -13 -18 -18 -18 -80 -6 -53 11 -79 11 -130 1 -90
-17 -111 -41 -111 -125 0 -54 4 -67 25 -90 56 -60 144 -81 204 -50 37 20 43
19 51 -5 6 -20 76 -46 100 -37 7 3 15 25 18 49 4 23 14 90 22 148 26 173 27
182 8 220 -10 19 -38 47 -64 63 -40 24 -58 29 -135 32 -49 2 -101 1 -116 -1z
m162 -273 c36 -10 38 -50 5 -89 -30 -36 -72 -48 -119 -32 -55 18 -68 91 -22
122 13 9 102 9 136 -1z"/>
<path d="M628 16205 c-5 -5 -86 -22 -213 -45 -27 -5 -79 -15 -115 -23 l-65
-14 0 -54 c0 -30 6 -72 12 -94 7 -22 19 -76 28 -120 27 -139 47 -228 61 -282
8 -28 14 -64 14 -80 0 -50 11 -57 66 -43 27 6 63 14 79 16 69 11 303 69 311
77 9 9 -10 69 -23 74 -13 5 -83 -8 -237 -44 -66 -15 -70 -15 -83 2 -7 10 -15
35 -18 54 -3 20 -10 54 -15 76 -7 29 -6 43 3 51 14 13 127 44 159 44 12 0 48
8 81 17 57 17 58 19 53 48 -11 53 -23 58 -112 40 -43 -9 -102 -23 -130 -31
-84 -24 -88 -21 -109 80 -19 92 -14 102 53 111 26 4 63 12 82 18 19 6 64 15
100 21 l65 11 0 45 c0 38 -3 45 -20 48 -12 2 -23 0 -27 -3z"/>
<path d="M7254 16179 c-3 -6 1 -37 9 -68 9 -31 23 -92 33 -136 9 -44 22 -100
29 -125 8 -25 17 -69 20 -98 7 -52 6 -54 -45 -127 -28 -41 -49 -79 -45 -85 5
-8 67 -30 87 -30 7 0 124 159 181 247 20 32 66 99 101 148 36 50 78 112 95
138 l31 48 -46 20 c-55 25 -57 23 -115 -74 -48 -82 -134 -198 -145 -198 -8 0
-26 76 -44 181 -17 99 -36 153 -56 161 -29 12 -82 10 -90 -2z"/>
<path d="M1501 16162 c-57 -19 -116 -79 -125 -125 -9 -49 14 -101 56 -127 25
-15 50 -20 108 -20 122 0 179 -42 130 -95 -27 -28 -121 -42 -188 -27 -37 9
-44 8 -52 -8 -32 -60 3 -82 130 -82 129 1 218 50 235 130 21 100 -49 161 -189
163 -95 2 -110 9 -114 50 -2 29 2 39 20 51 40 26 83 30 139 14 62 -19 82 -9
77 38 -3 26 -9 32 -43 42 -54 17 -130 15 -184 -4z"/>
<path d="M1023 16075 c-64 -16 -143 -54 -156 -76 -13 -21 -1 -65 18 -73 9 -3
37 8 63 24 27 16 69 32 99 36 50 6 54 5 83 -26 52 -56 49 -59 -102 -105 -48
-15 -100 -38 -115 -51 -25 -22 -28 -30 -28 -88 0 -78 21 -106 96 -131 44 -15
54 -15 102 -1 29 8 64 27 77 41 22 24 25 24 47 9 14 -9 40 -14 61 -12 36 3 37
4 40 46 2 23 -4 69 -12 103 -9 33 -16 71 -16 83 0 13 -9 53 -21 89 -23 73 -57
114 -111 134 -41 14 -59 14 -125 -2z m147 -305 c0 -46 -29 -85 -74 -100 -43
-14 -83 1 -96 35 -21 56 -2 80 81 104 75 21 89 14 89 -39z"/>
<path d="M7895 16064 c-11 -3 -30 -7 -41 -9 -26 -6 -36 -28 -28 -61 6 -23 7
-24 93 -18 79 6 89 4 121 -18 27 -18 36 -31 38 -59 4 -51 -13 -61 -78 -49 -87
16 -171 13 -204 -9 -82 -54 -73 -168 17 -235 30 -22 111 -28 173 -12 27 7 32
5 36 -12 4 -14 20 -24 49 -32 52 -14 65 -3 75 69 3 25 12 71 20 101 7 30 16
92 20 137 6 73 5 85 -15 117 -29 47 -111 85 -194 91 -34 2 -71 2 -82 -1z m106
-274 c56 -16 65 -33 40 -73 -43 -70 -115 -84 -167 -32 -30 30 -31 62 -2 92 24
26 68 30 129 13z"/>
<path d="M8347 15908 c-9 -35 -23 -97 -32 -138 -9 -41 -23 -97 -30 -125 -8
-27 -16 -70 -17 -94 l-3 -45 44 -9 c33 -6 47 -5 56 5 7 7 22 58 35 113 38 171
56 206 116 225 46 15 100 -2 118 -38 15 -29 9 -74 -28 -237 -9 -38 -19 -81
-22 -96 -5 -20 -1 -27 21 -37 14 -7 39 -12 54 -12 31 0 45 23 61 105 5 22 13
58 18 80 30 126 34 179 18 223 -19 54 -55 84 -119 98 -38 9 -58 9 -94 -2 -61
-18 -73 -18 -73 4 0 19 -48 42 -87 42 -17 0 -24 -11 -36 -62z"/>
<path d="M4588 15549 c-5 -3 -8 -28 -6 -55 l3 -49 60 0 c66 0 72 7 61 70 -6
32 -9 33 -57 37 -28 1 -55 0 -61 -3z"/>
<path d="M5875 15394 c-36 -57 -52 -83 -64 -109 -5 -11 -21 -37 -35 -58 -14
-21 -26 -41 -26 -45 0 -4 -14 -25 -30 -46 -17 -22 -30 -44 -30 -48 0 -5 -11
-24 -25 -42 -14 -18 -25 -37 -25 -42 0 -5 -25 -47 -55 -94 -31 -46 -54 -91
-53 -99 2 -9 18 -20 36 -25 40 -11 78 4 93 36 12 27 28 55 51 87 18 26 45 26
223 2 125 -18 135 -20 139 -34 2 -7 12 -43 23 -80 14 -52 23 -69 38 -72 72
-14 86 -14 91 -1 3 8 -15 76 -40 153 -24 76 -66 206 -91 288 -69 222 -78 249
-88 263 -5 6 -30 12 -56 12 -45 0 -48 -2 -76 -46z m98 -174 c46 -151 57 -204
44 -216 -14 -14 -227 13 -227 29 0 14 47 105 80 154 17 24 30 47 30 50 0 13
44 53 50 46 4 -5 14 -33 23 -63z"/>
<path d="M3091 15389 l-34 -10 6 -59 c6 -53 4 -61 -15 -75 -13 -8 -30 -15 -40
-15 -24 0 -28 -10 -19 -50 7 -33 9 -35 43 -32 20 2 39 -1 42 -6 3 -6 13 -63
22 -129 26 -190 59 -233 178 -233 86 0 98 7 94 51 -3 33 -5 34 -49 37 -65 4
-85 29 -101 122 -6 41 -12 98 -12 125 l-1 50 58 9 58 8 -3 37 -3 36 -60 5
c-57 5 -60 6 -67 38 -4 17 -12 47 -16 65 -9 36 -26 42 -81 26z"/>
<path d="M4187 15325 c-21 -8 -45 -22 -54 -31 -16 -15 -18 -15 -34 5 -15 18
-27 22 -66 19 l-48 -3 -3 -188 c-1 -103 1 -208 6 -235 l7 -47 50 0 50 0 5 166
c4 148 7 169 25 189 31 35 78 50 119 39 55 -15 62 -36 70 -213 4 -88 9 -163
12 -168 3 -4 27 -8 55 -8 l49 0 0 168 c0 92 -5 184 -10 204 -27 97 -127 141
-233 103z"/>
<path d="M2035 15319 c-38 -4 -88 -12 -110 -18 -22 -5 -64 -12 -93 -15 -29 -3
-57 -8 -62 -11 -14 -9 -12 -51 4 -131 19 -95 64 -369 73 -444 12 -106 8 -100
71 -100 31 0 75 5 97 10 22 6 75 14 117 20 136 16 223 73 250 161 10 35 9 49
-7 94 -19 59 -44 88 -87 104 -33 12 -35 29 -9 62 33 43 45 96 31 142 -33 110
-111 146 -275 126z m136 -118 c22 -23 29 -39 29 -68 0 -70 -68 -108 -200 -115
-57 -2 -74 0 -80 12 -13 26 -30 154 -21 163 14 14 120 34 184 36 52 1 62 -2
88 -28z m28 -267 c34 -7 71 -56 71 -94 0 -45 -36 -86 -92 -103 -68 -21 -190
-37 -202 -27 -10 10 -35 124 -36 163 0 33 25 45 120 57 91 10 103 11 139 4z"/>
<path d="M4590 15320 c-9 -6 -16 -457 -7 -467 7 -7 94 -9 101 -2 3 3 7 109 8
235 l3 229 -48 5 c-26 3 -52 3 -57 0z"/>
<path d="M4960 15304 c-105 -45 -142 -107 -144 -239 -1 -83 1 -95 25 -131 58
-88 167 -129 281 -105 76 15 102 35 93 71 -10 40 -20 43 -72 26 -41 -14 -59
-15 -100 -6 -86 19 -116 71 -103 184 6 53 11 63 46 94 36 31 43 34 95 30 36
-3 66 -12 87 -26 l31 -23 21 21 c34 34 22 61 -39 93 -44 21 -68 27 -120 27
-36 -1 -82 -8 -101 -16z"/>
<path d="M6807 15313 c-3 -5 -13 -49 -21 -98 -9 -50 -23 -121 -30 -160 -8 -38
-22 -115 -31 -170 -9 -55 -21 -128 -27 -162 -14 -85 -10 -93 51 -93 50 0 50 0
60 38 5 20 13 58 17 85 3 26 11 50 16 53 10 6 48 -23 48 -37 0 -13 102 -161
124 -181 13 -12 35 -18 68 -18 40 0 48 3 48 19 0 10 -7 24 -15 31 -8 7 -39 51
-67 99 -29 47 -55 88 -60 89 -4 2 -8 12 -8 23 0 13 34 45 103 95 56 42 106 83
111 91 12 22 -10 33 -73 33 -47 0 -58 -4 -100 -39 -76 -64 -141 -111 -151
-111 -13 0 -13 91 1 127 9 25 17 71 36 224 3 26 1 49 -4 52 -19 12 -91 19 -96
10z"/>
<path d="M3570 15298 c-19 -5 -57 -19 -83 -31 -46 -20 -48 -23 -45 -56 2 -29
8 -37 26 -39 13 -2 30 2 38 9 8 6 39 17 69 24 93 22 145 -5 145 -75 0 -21 -3
-22 -115 -40 -38 -6 -89 -21 -112 -32 -88 -43 -91 -162 -6 -221 69 -49 185
-38 230 22 10 14 13 12 22 -13 11 -27 14 -28 53 -22 57 9 69 21 63 65 -2 20
-9 90 -16 156 -12 133 -28 192 -62 222 -44 40 -129 53 -207 31z m153 -279 c26
-42 -26 -115 -90 -125 -36 -5 -45 -3 -67 19 -30 30 -34 68 -10 88 22 19 92 38
128 36 16 -1 33 -9 39 -18z"/>
<path d="M2661 15203 c-105 -10 -201 -123 -201 -238 0 -32 21 -110 41 -147 19
-39 81 -88 123 -99 56 -15 166 -4 217 22 49 26 76 61 100 131 24 66 24 91 -1
169 -40 125 -128 175 -279 162z m128 -117 c42 -44 64 -162 40 -209 -32 -61
-79 -85 -145 -72 -100 18 -140 199 -62 283 18 18 32 22 83 22 52 0 65 -4 84
-24z"/>
<path d="M6394 15162 c-6 -4 -19 -50 -28 -102 -10 -52 -24 -133 -32 -180 -9
-47 -14 -107 -12 -135 l3 -50 51 -3 c57 -3 64 5 64 78 0 51 27 180 46 216 18
36 60 53 139 57 l50 2 0 45 0 45 -48 3 c-29 2 -60 -3 -79 -12 -38 -20 -58 -20
-58 -2 0 7 -6 18 -12 24 -18 14 -71 23 -84 14z"/>
<path d="M4220 14376 c0 -9 7 -16 16 -16 9 0 14 5 12 12 -6 18 -28 21 -28 4z"/>
<path d="M4490 14357 c0 -60 -5 -64 -64 -59 -46 4 -56 1 -75 -19 -12 -13 -26
-40 -32 -60 -10 -32 -8 -41 16 -83 25 -44 29 -46 70 -46 24 0 47 5 50 10 3 6
-4 10 -17 10 -45 0 -67 13 -83 47 -16 33 -16 38 0 73 37 81 135 52 135 -39 0
-17 -6 -40 -12 -51 -10 -16 -10 -23 5 -37 31 -31 38 -4 35 142 -2 100 -6 140
-15 143 -9 2 -13 -8 -13 -31z"/>
<path d="M3570 14340 c-13 -8 -12 -10 3 -10 10 0 31 -10 47 -22 23 -16 30 -30
30 -55 0 -28 -5 -35 -42 -53 -44 -21 -84 -25 -107 -11 -7 5 -17 28 -22 52 -8
47 5 69 42 69 10 0 21 5 24 11 5 7 -11 9 -47 7 l-53 -3 -3 -36 c-2 -20 4 -66
12 -103 9 -37 16 -88 16 -112 0 -32 4 -44 13 -41 7 2 12 23 12 53 1 64 8 74
56 74 32 0 46 -6 70 -32 16 -18 32 -40 34 -49 7 -20 35 -34 35 -18 0 17 -42
89 -52 89 -16 0 -7 27 17 50 43 40 31 106 -25 135 -34 18 -40 18 -60 5z"/>
<path d="M5797 14316 c-8 -9 -25 -35 -37 -58 -12 -24 -30 -56 -41 -73 -10 -16
-23 -40 -28 -52 -5 -11 -15 -24 -20 -28 -14 -8 -14 -55 0 -55 6 0 13 8 16 19
2 10 18 28 34 40 20 15 29 30 29 50 0 29 26 90 45 103 26 19 43 7 49 -34 15
-99 14 -102 -24 -109 l-35 -5 30 -8 c56 -13 78 -30 88 -65 6 -25 11 -31 20
-22 8 8 8 19 -2 44 -7 17 -17 50 -22 72 -6 22 -14 44 -20 50 -5 5 -9 21 -9 36
0 15 -6 34 -14 42 -8 7 -16 24 -18 37 -4 29 -21 36 -41 16z"/>
<path d="M4622 14288 c-7 -7 -12 -16 -12 -21 0 -5 -7 -15 -15 -23 -26 -26 -19
-79 16 -119 30 -33 35 -36 82 -33 71 4 76 28 5 28 -44 1 -56 5 -71 25 -14 20
-15 26 -3 37 10 9 10 17 3 29 -13 21 15 69 39 69 8 0 12 5 9 10 -8 14 -38 13
-53 -2z"/>
<path d="M4696 14291 c-3 -4 6 -13 19 -19 27 -12 31 -32 15 -63 -8 -15 -7 -19
3 -19 23 0 40 28 33 54 -11 42 -55 72 -70 47z"/>
<path d="M4844 14288 c-3 -4 -4 -48 -3 -98 3 -109 21 -118 30 -14 3 38 10 77
14 87 10 25 66 22 94 -4 21 -19 23 -29 19 -92 -2 -50 1 -71 10 -74 19 -7 16
151 -4 182 -14 22 -22 24 -86 22 -38 -1 -72 -5 -74 -9z"/>
<path d="M4033 14278 c-42 -20 -40 -82 5 -99 34 -13 40 -3 15 23 -18 17 -19
25 -11 44 9 19 19 24 50 24 24 0 37 4 33 10 -8 13 -64 12 -92 -2z"/>
<path d="M4220 14201 c0 -93 6 -125 21 -115 5 3 9 50 9 105 0 81 -3 99 -15 99
-12 0 -15 -17 -15 -89z"/>
<path d="M5121 14261 c-27 -26 -31 -35 -31 -83 0 -40 5 -59 18 -70 35 -29 112
-52 97 -28 -3 6 -14 10 -24 10 -57 0 -84 115 -38 158 25 24 76 29 95 10 6 -6
15 -9 19 -5 12 13 -31 36 -68 37 -27 0 -45 -8 -68 -29z"/>
<path d="M2964 14262 c-13 -8 -1 -174 16 -230 22 -70 20 -68 29 -53 5 7 2 40
-5 74 -7 34 -14 91 -14 127 0 68 -8 94 -26 82z"/>
<path d="M3786 14239 c-45 -53 -46 -100 -5 -152 16 -22 29 -27 62 -27 23 0 52
3 64 6 36 10 17 23 -26 17 -44 -6 -76 8 -84 36 -7 29 11 39 78 43 53 3 60 5
63 25 2 13 -6 36 -18 53 -18 25 -28 30 -65 30 -36 0 -48 -5 -69 -31z m111 -11
c41 -38 23 -58 -53 -58 -37 0 -55 18 -48 47 10 37 67 43 101 11z"/>
<path d="M5335 14244 c-13 -14 -27 -35 -31 -46 -10 -32 4 -83 31 -112 22 -24
31 -27 77 -24 68 4 77 26 9 25 -41 -1 -53 3 -70 24 -11 13 -18 31 -15 39 3 8
7 29 10 45 2 17 12 37 23 46 19 16 18 29 -1 29 -5 0 -20 -12 -33 -26z"/>
<path d="M5420 14266 c0 -2 14 -19 31 -37 l30 -33 -33 -18 -33 -18 35 2 c33 3
35 5 33 38 -1 22 -9 41 -23 52 -21 17 -40 23 -40 14z"/>
<path d="M6020 14252 c0 -10 -6 -27 -14 -38 -13 -16 -12 -21 1 -36 13 -14 13
-25 3 -67 -10 -41 -9 -54 4 -80 9 -17 23 -31 31 -31 23 0 25 15 4 34 -14 12
-19 25 -15 44 2 15 7 44 11 64 5 30 10 37 31 40 31 4 33 21 2 28 -16 4 -24 14
-26 33 -4 30 -32 38 -32 9z"/>
<path d="M3144 14195 c-4 -10 -16 -14 -33 -13 -22 3 -26 -1 -29 -27 -5 -45 8
-155 19 -155 5 0 9 33 9 73 0 87 16 111 71 105 38 -3 45 -17 54 -110 6 -50 9
-58 27 -58 15 0 18 4 13 18 -4 9 -10 44 -13 77 -5 73 -29 105 -79 105 -21 0
-36 -6 -39 -15z"/>
<path d="M4090 14169 c0 -6 9 -13 20 -16 23 -6 25 -16 10 -44 -8 -14 -21 -19
-56 -19 -28 0 -43 -4 -39 -10 10 -16 83 -12 110 6 31 20 34 68 6 84 -26 13
-51 13 -51 -1z"/>
<path d="M4217 13353 c-4 -3 -7 -46 -7 -95 0 -104 6 -108 69 -44 47 48 47 49
-6 110 -32 36 -44 42 -56 29z"/>
<path d="M4452 13314 c-24 -25 -42 -49 -40 -53 6 -17 89 -101 98 -101 6 0 10
41 10 100 0 117 -5 121 -68 54z"/>
<path d="M4310 13025 l0 -46 58 3 57 3 0 40 0 40 -57 3 -58 3 0 -46z"/>
<path d="M4246 12801 c-9 -14 5 -69 19 -81 8 -7 52 -10 111 -8 l99 3 11 35
c19 58 14 60 -116 60 -66 0 -121 -4 -124 -9z"/>
<path d="M4284 12626 c-3 -13 -4 -38 -2 -57 l3 -34 85 0 85 0 3 44 c2 24 -1
48 -7 54 -5 5 -43 11 -85 13 -72 4 -76 3 -82 -20z"/>
<path d="M4340 12355 c0 -31 26 -43 47 -22 21 21 9 47 -22 47 -20 0 -25 -5
-25 -25z"/>
<path d="M3887 12306 c-10 -26 3 -46 30 -46 21 0 24 4 21 28 -3 31 -41 44 -51
18z"/>
<path d="M4807 12314 c-4 -4 -7 -18 -7 -31 0 -21 4 -24 28 -21 21 2 27 8 27
28 0 18 -6 26 -20 28 -12 2 -24 0 -28 -4z"/>
<path d="M3474 12085 c-8 -21 2 -45 19 -45 21 0 38 25 31 44 -8 20 -43 21 -50
1z"/>
<path d="M5222 12088 c-16 -16 -15 -23 4 -42 20 -21 31 -20 44 3 20 39 -18 69
-48 39z"/>
<path d="M4220 11900 c-121 -9 -386 -56 -441 -79 -13 -5 -41 -12 -61 -16 -47
-7 -88 -39 -71 -55 11 -12 25 -9 218 45 28 8 64 16 80 19 294 45 408 58 458
53 276 -32 408 -52 477 -72 174 -50 202 -57 212 -47 29 29 -36 55 -267 106
-204 44 -409 60 -605 46z"/>
<path d="M4155 11536 c-5 -2 -71 -9 -145 -15 -257 -22 -713 -86 -827 -117 -28
-8 -63 -14 -79 -14 -15 0 -50 -6 -78 -14 -28 -8 -82 -20 -121 -26 -38 -6 -101
-18 -140 -26 -38 -8 -92 -18 -120 -23 -27 -5 -68 -14 -90 -19 -22 -6 -101 -25
-175 -42 -74 -17 -153 -36 -175 -41 -22 -6 -58 -14 -80 -18 -51 -11 -143 -33
-310 -77 -27 -7 -77 -19 -110 -28 -160 -39 -148 -33 -141 -74 8 -52 22 -112
34 -147 13 -35 34 -119 58 -225 9 -41 23 -95 30 -120 17 -55 63 -248 74 -312
5 -27 11 -52 14 -56 3 -5 17 -66 31 -137 14 -70 27 -131 30 -135 7 -11 34
-148 74 -365 6 -33 15 -76 21 -95 5 -19 10 -49 10 -66 0 -18 6 -54 14 -80 8
-27 20 -87 26 -134 7 -47 18 -125 26 -175 8 -49 21 -144 29 -210 9 -66 19
-139 22 -162 7 -52 -1 -77 -22 -66 -8 5 -38 6 -66 3 -45 -4 -56 -10 -82 -42
-29 -36 -29 -39 -14 -56 26 -28 22 -52 -9 -52 -18 0 -24 5 -22 18 1 9 -1 23
-6 30 -5 8 -4 18 3 25 17 17 13 35 -10 47 -25 14 -51 -6 -75 -56 -20 -42 -15
-68 14 -72 12 -2 22 -10 22 -17 0 -8 9 -17 20 -20 11 -4 20 -15 20 -26 0 -11
7 -22 15 -24 51 -16 50 -16 35 -25 -8 -5 -21 -5 -29 -1 -22 12 -41 3 -41 -19
0 -20 23 -37 75 -56 17 -6 32 -19 33 -28 2 -10 13 -29 25 -42 18 -21 27 -24
63 -18 47 7 76 -3 53 -17 -8 -5 -29 -9 -46 -9 -26 0 -34 -5 -39 -24 -11 -46
16 -59 70 -31 27 14 30 14 63 -15 23 -21 44 -30 68 -30 31 0 35 -3 35 -26 0
-23 -3 -25 -32 -22 -26 2 -33 -1 -36 -17 -2 -11 -10 -35 -18 -53 -21 -46 -11
-106 21 -120 35 -16 52 7 35 49 -12 28 -11 32 13 55 15 14 27 32 27 40 0 11 6
13 20 9 11 -3 34 0 52 8 96 42 106 43 95 13 -3 -8 -24 -20 -46 -26 -44 -12
-141 -99 -141 -127 0 -8 17 -31 37 -49 28 -26 34 -37 25 -46 -9 -9 -16 -8 -30
5 -39 35 -70 9 -56 -47 5 -20 13 -26 33 -26 36 0 71 -11 71 -21 0 -5 -16 -9
-36 -9 -58 0 -124 65 -124 122 0 37 -15 43 -29 11 -11 -23 -15 -25 -54 -18
-69 11 -111 12 -129 3 -14 -7 -18 -4 -18 12 0 15 6 20 29 20 28 0 46 15 77 66
10 15 14 17 25 7 15 -15 59 -18 59 -5 0 5 -16 25 -35 45 -19 19 -37 48 -41 64
-8 32 -83 123 -101 123 -7 0 -25 14 -40 30 -16 19 -36 30 -52 30 -15 0 -35 9
-45 21 l-18 21 -23 -22 c-15 -14 -30 -20 -41 -16 -16 6 -15 8 1 26 10 11 26
20 36 20 32 0 49 12 49 35 0 29 -3 31 -62 40 -39 6 -49 4 -66 -13 -17 -17 -20
-29 -15 -58 6 -33 4 -36 -15 -30 -14 5 -24 1 -30 -10 -10 -19 -32 -11 -32 12
0 21 -11 17 -51 -19 -26 -23 -38 -43 -42 -72 -3 -22 -8 -48 -12 -57 -12 -30
33 -23 47 7 6 14 19 25 27 24 47 -4 72 3 96 28 22 24 28 26 45 15 11 -6 27
-12 37 -12 9 0 24 -7 33 -15 12 -11 24 -12 46 -6 21 6 36 4 49 -5 10 -8 33
-14 50 -14 32 0 55 -15 55 -36 0 -7 -25 -20 -56 -30 -72 -22 -110 -74 -54 -74
23 0 36 -18 22 -32 -8 -8 -20 -7 -42 2 -33 14 -80 2 -80 -20 0 -6 -9 -23 -20
-38 -27 -36 -18 -60 23 -64 27 -2 33 -8 35 -30 2 -16 9 -28 18 -28 19 0 18
-14 -2 -31 -8 -7 -13 -20 -11 -30 3 -12 -3 -19 -24 -23 -21 -4 -29 -11 -29
-26 0 -24 26 -38 43 -21 13 13 57 15 57 2 0 -5 -9 -13 -21 -16 -55 -18 23 -48
98 -38 36 5 42 9 45 32 2 21 8 26 28 24 46 -4 68 7 91 43 22 36 22 37 3 51
-10 8 -30 13 -44 12 -35 -4 -70 10 -70 26 0 24 19 27 42 6 24 -23 36 -25 70
-12 31 11 76 -5 60 -21 -7 -7 -12 -23 -12 -36 0 -14 -7 -26 -18 -28 -36 -10
-61 -65 -72 -164 -6 -52 -15 -111 -20 -130 -5 -19 -12 -64 -15 -100 -4 -36
-11 -76 -16 -90 -5 -14 -13 -54 -18 -90 -16 -112 -39 -247 -50 -287 -5 -21
-17 -76 -26 -123 -9 -47 -21 -105 -27 -130 -6 -25 -14 -65 -19 -90 -4 -25 -15
-74 -23 -110 -8 -36 -22 -96 -30 -135 -8 -38 -19 -83 -25 -98 -6 -16 -11 -40
-11 -53 0 -14 -6 -46 -14 -72 -27 -87 -96 -387 -96 -413 0 -21 32 -57 153
-175 83 -81 195 -183 247 -226 52 -44 115 -96 140 -117 55 -46 299 -220 395
-282 39 -25 106 -69 151 -97 44 -29 84 -52 88 -52 5 0 27 -13 50 -28 22 -15
61 -38 86 -51 25 -12 61 -32 80 -43 64 -38 332 -168 345 -168 4 0 26 -9 49
-19 64 -30 182 -76 281 -111 50 -18 106 -38 125 -45 75 -28 207 -69 245 -76
77 -16 163 -37 201 -50 48 -16 188 -16 229 0 27 11 121 35 185 47 40 7 218 64
301 95 41 16 81 29 88 29 7 0 25 6 39 14 29 15 71 32 170 66 34 13 65 27 68
31 3 5 12 9 20 9 17 0 394 185 469 230 28 16 57 33 66 37 8 5 62 36 120 71 57
35 113 69 124 75 11 7 36 24 55 38 19 14 40 28 46 30 12 5 138 95 257 186 45
35 95 73 112 85 36 28 145 119 200 168 22 19 104 98 183 176 126 123 143 144
138 165 -4 13 -11 40 -16 59 -5 19 -16 60 -24 90 -16 60 -36 143 -61 260 -9
41 -23 102 -31 135 -28 122 -67 301 -71 325 -2 14 -10 54 -18 90 -7 36 -19 92
-25 125 -6 33 -18 92 -26 130 -7 39 -18 99 -23 135 -6 36 -15 78 -20 94 -6 15
-11 42 -11 59 0 17 -7 67 -15 109 -34 179 -44 237 -50 306 -7 66 -10 74 -39
94 -40 28 -75 69 -76 88 0 9 -5 21 -11 27 -21 21 2 33 57 31 48 -2 58 1 74 22
l18 23 15 -30 16 -31 -39 -6 c-21 -3 -45 -3 -53 0 -16 6 -57 -11 -57 -24 0 -4
16 -24 35 -45 33 -36 38 -38 75 -32 38 6 40 5 40 -19 0 -33 32 -50 83 -43 52
7 66 21 44 45 -29 31 -20 43 16 22 39 -24 63 -25 71 -4 9 23 8 24 -24 35 -22
8 -30 17 -30 34 0 13 -7 25 -15 29 -8 3 -15 10 -15 16 0 5 7 10 15 10 10 0 15
10 15 30 0 27 -3 30 -31 30 -23 0 -30 4 -27 17 5 25 24 27 46 5 29 -29 57 -35
76 -17 17 17 14 32 -21 88 -25 40 -60 50 -83 22 -16 -20 -36 -19 -44 1 -8 21
1 34 24 34 10 0 21 4 24 9 13 21 -9 41 -70 63 -35 12 -64 28 -64 33 0 21 25
35 61 35 21 0 41 4 44 10 3 6 26 10 50 10 24 0 46 4 49 9 3 5 27 12 52 16 39
5 49 3 65 -14 18 -19 46 -26 90 -23 9 1 21 -10 27 -23 8 -17 20 -25 37 -25 26
0 32 9 16 25 -6 6 -12 28 -14 49 -4 30 -14 48 -41 73 -39 36 -56 41 -56 19 0
-23 -22 -31 -36 -12 -8 11 -14 13 -19 7 -3 -6 -10 -11 -16 -11 -13 0 -11 44 2
57 9 9 4 18 -15 38 -25 24 -32 26 -74 20 -57 -8 -62 -11 -62 -34 0 -23 20 -41
45 -41 26 0 62 -35 46 -45 -6 -3 -23 3 -37 14 -27 21 -49 19 -58 -5 -3 -8 -16
-14 -28 -14 -13 0 -35 -13 -50 -29 -15 -15 -41 -31 -58 -34 -21 -5 -30 -12
-30 -27 0 -11 -4 -20 -10 -20 -14 0 -60 -72 -60 -95 0 -11 -16 -31 -35 -45
-19 -14 -35 -31 -35 -37 0 -16 42 -17 57 -2 16 16 33 3 50 -38 12 -31 18 -35
44 -31 31 5 56 -13 44 -32 -4 -6 -12 -7 -24 -1 -10 6 -23 6 -31 1 -8 -5 -21
-5 -30 0 -11 6 -34 4 -64 -5 -46 -14 -47 -14 -56 11 -12 31 -30 23 -30 -13 0
-15 -15 -44 -36 -69 -29 -36 -41 -44 -69 -44 -51 0 -52 18 -1 25 38 6 46 12
55 36 18 53 -12 76 -58 47 -17 -10 -24 -8 -47 15 -29 29 -44 33 -61 16 -7 -7
-12 -1 -17 22 -12 59 34 65 67 9 10 -16 27 -30 37 -30 19 0 50 34 50 55 0 23
-87 103 -125 115 -63 20 -70 25 -73 59 -3 32 14 43 25 15 8 -21 110 -67 134
-61 11 3 19 1 19 -3 0 -5 14 -22 31 -38 30 -28 31 -30 16 -59 -21 -40 -8 -61
30 -47 25 9 28 14 27 57 0 53 -32 134 -51 130 -4 -1 -15 -3 -23 -5 -10 -2 -15
5 -15 22 0 21 6 26 38 31 21 3 50 18 67 34 27 26 30 26 51 11 49 -34 105 -14
88 32 -11 28 8 82 28 82 7 0 13 11 13 24 0 19 7 26 33 31 45 10 77 32 77 54 0
22 -21 33 -40 21 -15 -10 -30 -4 -30 11 0 5 9 9 20 9 13 0 20 7 20 20 0 13 10
24 25 30 15 6 25 17 25 30 0 15 7 20 25 20 30 0 32 20 10 73 -30 72 -85 70
-85 -4 0 -28 6 -42 22 -53 22 -15 21 -16 -25 -16 -46 0 -46 0 -40 30 5 29 5
30 -26 24 -25 -5 -31 -3 -31 11 0 13 6 15 30 10 25 -5 30 -3 30 12 0 10 -9 29
-19 43 -16 20 -27 24 -58 22 -62 -5 -65 5 -48 159 22 194 34 285 51 364 8 39
14 84 14 101 0 17 7 53 15 80 8 27 15 60 15 74 0 14 6 54 14 90 8 36 20 94 27
130 7 36 15 83 20 105 4 22 14 79 23 128 8 48 18 93 22 99 5 7 11 30 16 53 24
127 38 191 62 290 15 61 34 139 42 175 8 36 22 88 30 116 8 28 14 62 14 77 0
14 4 28 9 31 5 4 12 25 16 49 4 23 13 67 22 97 8 30 21 78 28 105 8 28 22 77
31 109 21 74 14 88 -57 102 -30 6 -117 28 -194 49 -77 21 -151 40 -165 42 -14
2 -54 11 -90 19 -109 26 -181 42 -260 59 -41 9 -100 22 -130 30 -86 21 -187
42 -285 60 -89 16 -173 32 -310 59 -105 21 -228 43 -345 61 -58 9 -132 21
-165 27 -73 13 -154 23 -305 37 -63 6 -149 16 -190 21 -77 10 -507 23 -525 16z
m-1519 -508 c11 -13 28 -50 38 -83 47 -154 47 -154 139 -244 48 -46 87 -91 87
-99 0 -8 9 -25 20 -39 22 -29 26 -63 8 -81 -9 -9 -7 -13 5 -18 23 -9 57 -66
57 -97 0 -17 -7 -28 -22 -32 -20 -7 -19 -9 15 -42 28 -26 37 -42 37 -67 0 -17
-5 -37 -10 -42 -8 -8 -6 -15 5 -24 8 -7 16 -30 16 -54 1 -37 2 -38 8 -11 3 17
11 30 16 30 37 0 125 -120 125 -170 0 -21 -8 -39 -25 -53 -14 -12 -25 -32 -25
-44 0 -21 -32 -85 -49 -98 -4 -3 -14 -17 -24 -32 -17 -27 -17 -30 3 -67 16
-32 19 -55 17 -126 -2 -47 1 -88 5 -91 14 -9 9 -34 -7 -41 -9 -3 -22 2 -30 13
-7 11 -17 16 -21 12 -10 -11 16 -38 37 -38 26 0 51 -43 48 -82 -2 -18 2 -57
10 -86 13 -51 16 -55 95 -106 46 -30 98 -72 117 -95 l35 -40 57 53 c31 29 69
59 85 66 15 8 46 29 70 48 34 27 42 39 42 67 0 19 5 37 10 40 6 3 10 26 10 51
0 55 14 84 41 84 11 0 22 7 26 15 9 25 -6 31 -21 9 -12 -15 -17 -16 -27 -7
-10 10 -10 18 0 37 8 13 11 36 7 49 -4 16 -1 29 9 37 11 9 12 16 3 30 -10 15
-7 32 12 86 22 65 23 67 5 80 -10 8 -22 14 -26 14 -4 0 -10 11 -13 25 -4 14
-15 34 -26 45 -11 11 -20 33 -20 49 0 20 -8 34 -25 45 -33 22 -33 64 1 119 33
53 74 97 90 97 20 0 54 54 48 77 -7 25 28 96 57 116 l21 15 -21 7 c-16 5 -21
15 -21 38 0 37 22 83 37 80 6 -1 17 4 23 12 10 12 9 16 -4 21 -24 9 -19 47 9
78 14 15 25 33 25 41 0 8 40 55 90 105 53 53 92 101 96 117 3 16 12 45 20 66
8 20 14 45 14 53 0 30 33 86 57 97 20 9 28 6 51 -16 48 -46 86 -55 218 -52
124 3 146 8 204 56 48 37 73 8 115 -131 30 -99 42 -119 132 -207 45 -44 73
-79 73 -92 0 -12 11 -31 25 -43 28 -25 32 -50 10 -68 -20 -17 -14 -33 15 -40
17 -4 27 -17 36 -50 13 -42 12 -46 -5 -58 -19 -13 -19 -15 11 -57 19 -26 32
-58 32 -78 2 -38 30 -87 50 -87 17 0 86 -78 86 -96 0 -6 7 -17 15 -24 8 -7 15
-27 15 -46 0 -25 -7 -38 -30 -54 -23 -17 -30 -29 -30 -55 0 -24 -6 -38 -20
-45 -13 -7 -20 -21 -20 -40 0 -19 -5 -30 -14 -30 -31 0 -35 -24 -13 -89 16
-51 18 -67 9 -82 -10 -16 -10 -21 3 -25 12 -5 14 -15 9 -40 -4 -20 -2 -40 5
-48 6 -7 11 -24 11 -37 -1 -70 8 -141 18 -151 7 -7 12 -26 12 -43 0 -36 18
-55 100 -107 30 -19 77 -58 104 -86 l50 -51 17 27 c24 39 64 73 140 121 42 26
71 51 77 69 17 46 25 86 23 119 -2 18 4 47 13 64 9 17 13 36 10 41 -3 5 -3 17
1 26 4 9 7 52 7 95 -1 57 5 90 19 123 l20 45 -24 42 c-14 23 -34 51 -46 61
-12 11 -21 31 -21 45 0 15 -13 38 -31 57 -30 31 -31 34 -19 66 30 74 95 158
122 158 23 0 47 42 41 73 -7 38 5 80 21 74 8 -3 19 6 25 21 10 22 10 28 -3 38
-33 24 -6 107 41 125 24 9 25 11 8 23 -14 10 -16 21 -11 48 4 20 13 38 20 41
7 3 16 19 19 35 4 20 21 42 52 65 89 68 128 130 171 272 10 33 28 71 40 84
l22 23 63 -38 c54 -34 70 -39 123 -39 l61 0 3 -49 c2 -33 -8 -90 -29 -169 -33
-119 -33 -120 -16 -167 9 -26 17 -62 17 -79 0 -18 7 -42 16 -55 9 -15 14 -42
13 -70 -2 -25 0 -49 4 -52 8 -8 -11 -44 -23 -44 -5 0 -12 11 -16 25 -10 42
-24 28 -24 -25 0 -56 -16 -98 -38 -102 -13 -2 -16 -18 -17 -69 0 -40 -6 -73
-14 -83 -12 -14 -11 -16 7 -16 24 0 62 -74 62 -121 0 -29 -40 -67 -59 -55 -5
3 -22 -1 -37 -9 -38 -19 -52 -19 -57 3 -3 15 -5 15 -12 -3 -4 -11 -13 -26 -19
-34 -11 -14 -30 -61 -47 -117 -5 -17 -20 -36 -34 -42 -22 -10 -25 -18 -24 -59
1 -37 3 -42 8 -23 19 68 57 -5 48 -93 -5 -58 -20 -75 -67 -79 -29 -3 -35 0
-38 19 -3 22 -3 22 -23 2 -10 -10 -19 -22 -19 -26 0 -12 -52 -138 -63 -151
-19 -23 -50 -115 -55 -162 -2 -25 1 -89 8 -142 11 -82 11 -106 -1 -150 -9 -33
-20 -54 -30 -56 -23 -4 -43 50 -36 98 4 35 3 39 -16 37 -15 -1 -22 6 -28 29
-7 23 -14 30 -31 30 -19 -1 -24 5 -26 32 -4 37 -8 39 -34 15 -15 -13 -22 -14
-44 -4 -23 10 -29 9 -46 -9 -15 -16 -23 -18 -38 -10 -11 6 -20 15 -20 20 0 17
-25 11 -37 -9 -19 -30 -122 -27 -156 5 -30 28 -37 30 -37 10 0 -7 -7 -19 -15
-26 -13 -11 -20 -9 -44 14 -24 23 -29 25 -35 11 -4 -12 -14 -14 -38 -10 -28 5
-35 3 -43 -17 -5 -13 -20 -24 -32 -26 -14 -2 -23 -10 -23 -21 0 -10 -11 -23
-24 -29 -22 -10 -25 -19 -28 -68 -2 -41 -8 -60 -20 -68 -35 -22 -42 5 -38 151
5 201 3 228 -14 262 -9 16 -16 41 -16 55 0 14 -6 29 -13 33 -7 4 -21 26 -31
48 -11 22 -25 52 -33 67 -7 14 -13 33 -13 41 0 13 -10 15 -55 10 -49 -5 -57
-3 -75 17 -14 17 -20 37 -20 74 0 74 8 96 35 96 34 0 41 48 9 60 -25 10 -44
39 -44 68 0 11 -7 22 -15 26 -9 3 -15 18 -15 35 0 24 -5 32 -25 37 -28 7 -31
14 -13 32 9 9 9 12 0 12 -7 0 -12 -4 -12 -10 0 -13 -57 -13 -65 0 -4 6 -18 9
-33 8 -20 -2 -28 3 -35 23 -21 56 24 156 64 144 17 -6 16 -2 -6 37 -19 34 -23
51 -18 85 5 35 3 43 -11 43 -9 0 -23 16 -32 38 -17 41 -18 54 -8 95 4 17 2 27
-5 27 -6 0 -11 -9 -11 -20 0 -16 -7 -20 -30 -20 -19 0 -34 7 -42 20 -21 33
-41 25 -35 -12 7 -46 -12 -107 -40 -125 -20 -13 -22 -21 -17 -54 7 -44 -11
-99 -33 -99 -8 0 -11 -5 -8 -10 3 -6 17 -7 30 -4 19 5 26 0 38 -23 21 -41 30
-108 18 -131 -7 -14 -18 -18 -36 -15 -15 3 -25 1 -25 -6 0 -6 -8 -11 -18 -11
-28 0 -107 -46 -104 -60 1 -7 -4 -23 -13 -36 -8 -13 -15 -30 -15 -38 0 -9 -13
-31 -30 -49 -32 -37 -38 -57 -17 -57 29 -1 39 -20 44 -81 4 -56 1 -69 -18 -93
-21 -26 -26 -28 -73 -23 -51 5 -51 5 -68 -32 -10 -21 -18 -42 -18 -48 0 -17
-33 -77 -48 -89 -9 -6 -13 -18 -9 -27 3 -8 -4 -32 -15 -53 -22 -41 -22 -44
-18 -267 3 -146 -3 -172 -38 -151 -12 8 -18 27 -20 68 -3 50 -6 58 -29 67 -20
7 -24 14 -19 34 5 21 3 24 -21 22 -20 -1 -31 4 -38 21 -10 23 -39 30 -50 11
-5 -7 -13 -5 -24 6 -16 14 -20 14 -44 -5 -26 -21 -57 -18 -57 6 0 19 -13 18
-42 -5 -34 -27 -129 -27 -154 0 -22 24 -30 24 -37 -1 -6 -25 -31 -26 -55 -2
-14 14 -24 16 -51 8 -27 -8 -35 -7 -43 7 -14 26 -26 20 -30 -15 -2 -27 -7 -33
-25 -31 -17 2 -23 -4 -28 -27 -8 -37 -21 -46 -41 -29 -14 12 -15 8 -9 -34 14
-94 -37 -144 -61 -62 -17 54 -16 114 0 208 15 82 13 101 -11 156 -8 19 -16 46
-17 60 0 14 -11 34 -22 43 -12 10 -25 34 -29 55 -4 20 -13 46 -21 57 -8 11
-14 29 -14 39 0 16 -5 18 -27 12 -42 -10 -85 -7 -100 8 -18 18 -27 104 -16
147 8 28 14 34 31 33 33 -4 30 44 -2 58 -14 7 -27 23 -31 38 -6 25 -29 81 -47
111 -5 8 -11 23 -14 33 -4 9 -11 17 -16 17 -5 0 -6 -5 -3 -10 12 -20 -25 -21
-53 -2 -15 11 -43 22 -62 24 -44 4 -50 29 -24 105 16 47 21 53 46 53 31 0 34
6 14 29 -22 27 -33 74 -25 106 6 20 5 31 -2 34 -32 10 -49 43 -49 90 0 28 -4
53 -10 56 -5 3 -10 -1 -10 -9 0 -19 -39 -22 -41 -3 -5 43 5 125 16 142 12 19
16 43 31 167 4 32 -2 79 -20 152 -14 58 -26 125 -26 150 0 39 3 45 26 50 15 4
39 4 55 1 30 -7 75 12 122 51 35 30 48 30 73 2z m1788 -2537 c3 -22 15 -61 27
-88 l21 -48 38 44 c21 24 48 63 60 87 12 25 25 42 30 39 5 -3 6 -48 3 -100 -5
-82 -4 -95 11 -101 10 -4 26 3 43 20 14 14 29 26 34 26 5 0 22 14 39 30 17 17
35 30 40 30 13 0 13 -37 0 -45 -5 -3 -10 -14 -10 -23 0 -9 -7 -30 -15 -46 -17
-32 -20 -72 -6 -81 9 -5 97 25 133 45 22 12 48 13 48 1 0 -11 -78 -112 -99
-127 -13 -10 -13 -14 -1 -29 11 -14 29 -16 101 -13 48 1 90 0 93 -3 4 -3 -30
-29 -74 -57 -44 -28 -80 -56 -80 -61 0 -15 57 -44 110 -57 58 -13 60 -37 5
-45 -22 -3 -49 -10 -60 -16 -11 -6 -28 -14 -37 -17 -10 -3 -18 -9 -18 -14 0
-13 79 -83 121 -107 l34 -20 -95 -5 c-118 -6 -123 -15 -51 -103 28 -34 51 -66
51 -71 0 -11 -45 1 -106 30 -59 28 -67 29 -83 10 -10 -11 -8 -26 9 -68 12 -29
26 -61 31 -70 5 -10 9 -25 9 -34 0 -14 -3 -15 -19 -3 -169 119 -166 119 -159
-2 7 -110 2 -121 -30 -67 -14 23 -30 48 -34 53 -44 56 -61 75 -68 75 -10 0
-37 -82 -46 -138 -10 -62 -36 -51 -49 21 -4 20 -11 40 -16 43 -5 3 -9 16 -9
28 0 13 -6 28 -13 35 -11 8 -26 -7 -73 -70 l-59 -81 -3 93 c-2 55 -7 96 -14
100 -11 7 -48 -15 -98 -57 -27 -23 -60 -37 -60 -26 0 4 11 41 24 82 26 81 21
105 -18 95 -27 -8 -96 -34 -118 -46 -50 -25 -42 4 17 68 36 38 53 78 40 91 -3
4 -45 9 -93 12 l-86 5 67 53 c37 29 67 58 67 66 0 14 -53 40 -109 54 -64 15
-53 28 54 62 68 21 71 28 28 72 -20 21 -41 38 -46 38 -13 0 -53 33 -55 45 -1
6 32 9 88 6 111 -4 118 5 64 78 -21 28 -41 51 -45 51 -4 0 -9 9 -12 21 -5 18
-2 20 26 14 18 -4 42 -13 55 -21 12 -8 39 -16 60 -17 36 -2 37 -1 34 32 -1 19
-6 39 -11 45 -9 12 -41 104 -41 118 0 9 13 0 48 -33 38 -35 112 -82 119 -75 5
4 10 53 13 109 4 76 8 97 15 81 6 -11 32 -50 60 -87 38 -52 52 -64 60 -55 12
13 45 111 45 132 0 15 21 37 30 31 4 -3 10 -22 14 -44z m-2322 -28 c9 -10 21
-28 27 -41 10 -19 9 -23 -6 -29 -29 -10 -63 -45 -63 -64 0 -26 -11 -49 -22
-49 -17 0 -3 88 17 110 17 19 17 21 1 39 -10 11 -30 23 -44 27 l-27 7 25 7
c43 13 76 11 92 -7z m4598 7 l25 -7 -25 -11 c-40 -16 -55 -39 -42 -65 14 -29
22 -107 12 -107 -5 0 -12 17 -16 37 -7 37 -37 72 -61 73 -21 0 -15 26 13 59
26 31 46 36 94 21z m-4760 -35 c0 -8 -9 -15 -20 -15 -20 0 -26 11 -13 23 12
13 33 7 33 -8z m4463 -137 l-29 -43 -69 -2 c-39 0 -62 1 -53 4 10 2 21 15 24
28 8 34 30 48 69 47 19 -1 45 2 57 7 13 5 25 7 27 5 2 -1 -10 -22 -26 -46z
m-3976 21 c19 -16 16 -57 -4 -62 -48 -12 -83 -2 -98 27 -8 15 -15 32 -15 36 0
21 91 20 117 -1z m-195 -4 c2 -12 -49 -31 -58 -22 -4 3 -4 13 0 22 6 18 55 18
58 0z m4305 -1 c3 -8 1 -20 -4 -25 -11 -11 -56 18 -48 32 10 15 45 10 52 -7z
m-4540 -16 c11 -13 23 -31 26 -40 5 -13 17 -18 42 -18 39 0 41 -4 20 -40 -12
-22 -14 -23 -20 -7 -4 9 -14 17 -21 17 -24 0 -97 77 -91 94 9 22 20 20 44 -6z
m4763 0 c0 -16 -31 -48 -47 -48 -21 0 -15 26 10 43 27 19 37 21 37 5z m-244
-68 c33 0 34 -1 34 -41 0 -36 -2 -40 -22 -37 -14 2 -24 12 -28 28 -6 27 -35
39 -53 21 -15 -15 -27 -14 -27 4 0 17 30 36 48 30 8 -3 29 -5 48 -5z m179 0
c7 -11 -7 -18 -45 -22 -16 -2 -25 3 -28 15 -3 14 3 17 32 17 19 0 38 -5 41
-10z m-4485 -29 c0 -20 -8 -35 -22 -46 -22 -15 -23 -15 -26 16 -5 42 3 59 28
59 16 0 20 -7 20 -29z m83 14 c4 -8 2 -17 -3 -20 -10 -6 -50 16 -50 27 0 14
48 8 53 -7z m92 -45 c3 -6 -6 -15 -20 -20 -36 -14 -37 -13 -25 10 11 21 35 27
45 10z m4001 -15 c16 -17 19 -25 9 -25 -25 0 -65 23 -65 37 0 21 31 15 56 -12z
m-4399 -12 c4 -12 -34 -29 -44 -19 -3 3 -3 12 1 21 7 18 37 17 43 -2z m76 -14
c-7 -7 -20 -8 -30 -5 -17 7 -17 8 1 22 23 17 48 2 29 -17z m4692 11 c4 -6 -5
-10 -20 -10 -15 0 -24 4 -20 10 3 6 12 10 20 10 8 0 17 -4 20 -10z m-44 -65
c0 -5 -12 -11 -26 -13 -18 -2 -25 1 -25 13 0 12 7 15 25 13 14 -2 26 -7 26
-13z m-4746 -240 c0 -25 -4 -31 -27 -33 -31 -4 -37 13 -17 49 16 30 44 20 44
-16z m4823 23 c15 -15 16 -68 1 -68 -24 0 -49 22 -49 44 0 36 24 48 48 24z
m-4430 -121 c2 -10 1 -30 -3 -44 -6 -24 -7 -24 -24 -9 -10 9 -23 16 -29 16
-17 0 -15 20 5 42 20 23 46 20 51 -5z m4512 13 c0 -5 -9 -10 -21 -10 -11 0
-17 5 -14 10 3 6 13 10 21 10 8 0 14 -4 14 -10z m-4312 -70 c2 -40 1 -43 -11
-27 -21 26 -55 21 -84 -13 -18 -22 -33 -30 -58 -30 -49 0 -52 16 -4 23 49 6
51 8 54 45 3 45 13 53 58 50 l42 -3 3 -45z m3690 38 c7 -7 12 -26 12 -44 0
-33 16 -44 68 -44 13 0 20 -4 17 -10 -3 -5 -20 -10 -37 -10 -23 0 -39 9 -62
35 -30 35 -32 35 -60 20 -15 -8 -30 -15 -32 -15 -10 0 -2 69 9 73 23 10 73 7
85 -5z m-4430 -30 c-5 -15 -58 -24 -58 -10 0 15 12 22 38 22 14 0 22 -5 20
-12z m54 -80 c-9 -9 -15 -9 -24 0 -10 10 -10 15 2 22 20 12 38 -6 22 -22z
m4998 22 c13 -9 13 -11 0 -20 -8 -5 -18 -10 -22 -10 -11 0 -20 19 -13 30 8 12
16 12 35 0z m-4980 -50 c13 -9 12 -13 -8 -28 -25 -19 -19 -31 21 -45 25 -9 21
-24 -10 -32 -36 -9 -38 -8 -38 15 0 11 -9 26 -20 34 -18 13 -18 14 3 20 13 4
22 16 22 27 0 21 8 24 30 9z m4960 -4 c0 -7 10 -21 23 -29 l22 -16 -22 -7
c-26 -7 -28 -15 -11 -32 21 -21 -11 -33 -39 -15 -30 20 -29 29 2 37 30 8 33
32 5 41 -23 7 -26 21 -7 28 21 9 27 7 27 -7z m-3704 -297 c30 -33 79 -48 157
-48 40 -1 92 -1 117 -1 53 -1 107 19 134 49 23 26 48 27 68 4 23 -26 65 -114
94 -196 23 -62 36 -82 100 -144 40 -39 82 -74 93 -78 20 -6 81 -86 81 -106 0
-19 -31 -21 -45 -3 -7 11 -17 16 -21 12 -11 -12 13 -58 31 -58 8 0 17 -12 21
-27 3 -16 7 -33 9 -39 2 -6 -1 -17 -5 -24 -11 -18 14 -79 40 -97 10 -7 20 -23
22 -36 2 -15 9 -21 21 -19 37 6 127 -68 127 -105 0 -12 -9 -27 -20 -33 -11 -6
-29 -29 -40 -50 -11 -22 -24 -40 -29 -40 -13 0 -23 -50 -13 -63 5 -7 12 -25
15 -42 3 -16 9 -43 13 -58 4 -17 1 -38 -6 -53 -11 -20 -11 -27 3 -42 10 -10
14 -21 11 -24 -3 -3 -1 -9 5 -13 6 -3 11 2 11 13 0 11 6 25 14 31 11 10 21 5
46 -21 33 -34 60 -85 60 -113 0 -16 -46 -65 -61 -65 -4 0 -9 10 -11 23 -2 12
-7 21 -12 20 -14 -4 -11 -70 3 -87 7 -8 10 -19 7 -24 -2 -4 0 -28 6 -53 5 -24
11 -57 13 -74 6 -72 43 -165 83 -213 23 -27 49 -55 58 -63 10 -8 32 -38 51
-66 18 -29 37 -53 41 -53 4 0 27 26 50 58 23 31 67 84 97 117 30 33 55 67 55
76 0 9 7 36 16 60 9 24 17 62 19 84 3 44 23 130 36 157 13 26 12 27 -29 44
-20 9 -45 27 -55 40 -17 22 -17 25 1 58 45 84 112 131 112 80 0 -14 4 -13 23
7 21 22 21 26 8 50 -15 27 -12 51 21 141 9 23 4 36 -32 92 -24 37 -46 66 -51
66 -4 0 -11 9 -14 20 -9 28 16 64 67 96 32 21 45 24 59 16 22 -14 29 -6 29 34
0 25 7 38 25 50 29 19 40 47 27 70 -14 25 7 82 41 110 22 18 27 28 19 36 -8 8
-13 7 -18 -5 -9 -25 -54 -22 -54 3 0 11 7 23 15 26 8 4 15 13 15 21 0 21 58
73 81 73 10 0 19 4 19 9 0 5 29 37 64 70 45 44 67 74 75 104 21 70 87 211 107
228 16 13 24 10 99 -37 30 -18 52 -24 87 -22 25 1 53 -4 61 -11 10 -8 17 -9
22 -1 3 5 31 10 61 10 60 0 107 16 141 49 30 29 58 26 81 -6 26 -38 82 -159
82 -179 0 -32 35 -82 107 -151 42 -40 84 -75 95 -79 23 -7 78 -92 71 -111 -6
-17 -40 -17 -46 0 -2 6 -7 9 -11 6 -11 -11 15 -57 35 -62 13 -3 19 -15 20 -34
2 -35 2 -35 -6 -54 -3 -8 5 -30 19 -50 14 -18 32 -48 40 -66 10 -22 20 -30 33
-27 23 5 93 -43 113 -78 14 -26 13 -29 -12 -55 -14 -15 -33 -43 -42 -60 -9
-18 -20 -33 -25 -33 -14 0 -20 -38 -11 -68 32 -101 33 -111 20 -142 -11 -27
-11 -34 3 -48 13 -13 19 -13 29 -4 22 22 43 12 75 -36 47 -70 50 -94 16 -126
-32 -30 -45 -29 -53 5 -5 19 -7 15 -13 -21 -3 -28 -2 -47 5 -51 6 -4 12 -20
14 -36 1 -15 5 -52 7 -82 3 -29 10 -58 16 -64 6 -6 11 -21 11 -32 0 -52 34
-115 100 -190 85 -94 130 -176 111 -199 -12 -14 -16 -14 -40 3 -15 11 -36 35
-46 55 -19 34 -19 35 -34 14 l-14 -21 -18 22 c-15 18 -22 20 -38 12 -30 -16
-39 -14 -55 17 -15 28 -15 29 -31 -23 -2 -8 -13 -15 -25 -15 -13 0 -24 -11
-34 -35 -16 -37 -35 -44 -59 -20 -13 13 -16 13 -21 -1 -3 -9 -6 -26 -6 -39 0
-13 -10 -31 -22 -40 -21 -14 -24 -14 -36 2 -21 27 -6 135 30 225 21 55 28 86
24 105 -4 16 -10 42 -13 58 -3 17 -14 35 -23 42 -9 7 -23 33 -30 58 -7 26 -19
49 -26 52 -7 2 -16 18 -19 35 -4 16 -13 32 -21 35 -8 3 -14 12 -14 20 0 8 -13
31 -29 51 -18 23 -31 55 -36 86 l-7 48 -34 -5 c-19 -3 -34 -1 -34 4 0 5 -17
17 -37 26 -21 10 -49 27 -63 39 -14 13 -41 24 -60 26 -46 4 -60 33 -60 125 0
79 6 103 25 103 17 0 12 55 -7 78 -25 30 -37 70 -31 105 4 30 2 35 -19 40 -15
4 -30 20 -41 45 -21 48 -21 56 -2 72 21 17 14 33 -16 40 -21 5 -24 12 -26 55
-5 104 -3 156 6 173 5 9 12 45 16 79 6 51 3 74 -15 125 -12 35 -28 74 -37 87
-16 25 -16 24 -39 -45 -28 -82 -32 -193 -8 -269 10 -33 12 -62 8 -85 -5 -19
-7 -49 -5 -66 2 -24 -4 -37 -23 -52 -26 -20 -34 -42 -16 -42 14 0 12 -18 -6
-66 -11 -30 -23 -44 -41 -49 -18 -4 -23 -10 -18 -24 9 -28 -11 -100 -34 -125
-26 -27 -27 -53 -3 -79 13 -15 17 -36 16 -101 -1 -100 -13 -126 -58 -126 -22
0 -40 -8 -56 -24 -12 -14 -36 -28 -52 -31 -16 -4 -32 -13 -35 -21 -3 -9 -20
-14 -44 -14 -30 0 -39 -4 -39 -17 0 -38 -23 -97 -46 -118 -13 -12 -24 -32 -24
-44 0 -11 -5 -21 -10 -21 -10 0 -60 -99 -74 -146 -4 -12 -15 -29 -26 -39 -11
-10 -20 -27 -20 -38 0 -10 -7 -32 -17 -47 -15 -27 -15 -30 7 -77 38 -80 60
-154 60 -199 0 -57 -8 -74 -35 -74 -18 0 -25 8 -32 38 -8 34 -12 37 -43 37
-31 0 -35 4 -40 30 -4 23 -11 30 -28 30 -26 0 -41 20 -42 55 l-1 25 -14 -26
c-19 -36 -46 -45 -63 -22 -12 17 -14 17 -30 -4 -12 -16 -24 -21 -38 -17 -22 6
-27 2 -65 -48 -16 -22 -29 -28 -57 -28 -51 0 -83 19 -108 63 -16 29 -23 35
-27 23 -8 -20 -33 -21 -41 -1 -6 17 -36 21 -36 5 0 -5 -9 -10 -21 -10 -13 0
-23 10 -31 31 -11 33 -24 29 -30 -11 -2 -19 -10 -26 -30 -28 -22 -3 -28 -9
-28 -28 0 -16 -8 -28 -25 -36 -21 -10 -27 -8 -39 8 -13 17 -15 16 -21 -21 -9
-47 -21 -65 -45 -65 -42 0 -35 111 15 235 31 75 32 82 19 119 -8 21 -14 46
-14 55 0 9 -9 22 -19 28 -11 7 -22 27 -26 45 -4 18 -16 44 -26 57 -11 13 -19
29 -19 36 0 7 -9 24 -20 38 -11 14 -20 32 -20 41 0 9 -7 19 -15 22 -14 6 -38
62 -49 117 -5 22 -12 27 -36 27 -21 0 -30 5 -30 16 0 11 -5 14 -16 10 -18 -7
-84 27 -97 50 -5 8 -24 14 -46 14 -33 0 -39 4 -54 35 -30 63 -18 195 18 195
19 0 9 59 -14 80 -27 24 -42 69 -35 105 5 29 3 34 -17 37 -31 4 -60 89 -40
120 14 22 12 26 -21 42 -17 9 -24 21 -25 51 -5 99 -2 150 12 191 21 62 19 132
-7 201 -24 64 -37 85 -48 78 -4 -2 -17 -34 -29 -70 -25 -74 -26 -174 -1 -257
11 -36 12 -58 4 -86 -7 -27 -7 -44 0 -56 9 -14 5 -23 -23 -48 -29 -26 -33 -33
-22 -50 17 -28 -5 -97 -36 -109 -29 -11 -38 -31 -24 -58 7 -13 8 -22 1 -26 -5
-3 -10 -14 -10 -24 0 -10 -9 -26 -19 -35 -29 -26 -32 -65 -9 -97 18 -24 20
-38 16 -108 -5 -91 -17 -111 -62 -111 -22 0 -40 -8 -56 -24 -12 -14 -36 -28
-52 -31 -16 -4 -32 -14 -35 -22 -4 -9 -13 -13 -26 -9 -25 6 -57 -10 -57 -28 0
-34 -34 -116 -50 -121 -12 -4 -16 -12 -13 -25 3 -12 -3 -23 -16 -32 -12 -7
-21 -19 -21 -26 0 -8 -8 -26 -18 -40 -11 -15 -24 -43 -31 -62 -6 -19 -20 -43
-30 -55 -43 -47 -44 -127 -3 -229 40 -98 44 -176 10 -200 -28 -20 -34 -15 -42
38 -7 43 -8 45 -31 34 -33 -15 -53 -4 -57 29 -2 22 -8 28 -28 28 -21 0 -26 6
-31 38 -8 48 -16 56 -25 22 -8 -34 -43 -48 -66 -28 -14 13 -17 12 -23 -6 -7
-24 -25 -27 -44 -8 -13 13 -17 9 -64 -58 -10 -14 -27 -25 -38 -25 -53 0 -23
67 95 208 58 70 76 101 94 157 12 39 22 83 22 97 0 15 5 39 11 55 6 15 11 43
10 61 0 17 4 32 9 32 6 0 10 19 9 43 0 35 -2 38 -9 20 -5 -13 -12 -23 -16 -23
-17 0 -74 53 -74 69 0 20 50 99 81 127 20 18 21 18 35 -1 14 -19 15 -19 36 3
20 20 21 22 5 40 -21 23 -22 51 -1 80 9 13 13 29 10 37 -3 8 -1 17 4 20 25 15
0 68 -81 173 -27 35 -13 60 60 111 27 19 37 22 51 13 20 -12 30 1 30 43 0 14
11 32 26 44 23 18 27 29 28 82 2 55 5 62 34 85 18 14 32 32 32 40 0 19 -19 18
-26 -1 -8 -19 -43 -19 -50 0 -8 20 82 125 107 125 10 0 19 5 19 11 0 6 29 38
64 72 47 45 68 75 81 112 26 75 77 185 98 213 15 19 52 14 73 -9z"/>
<path d="M4374 10834 c-3 -16 -12 -51 -19 -79 -23 -87 -26 -122 -14 -172 6
-26 11 -62 11 -80 0 -17 8 -39 18 -48 16 -14 18 -14 31 1 23 28 37 194 22 261
-8 32 -17 75 -22 96 -11 50 -19 56 -27 21z"/>
<path d="M2815 10500 c3 -5 13 -10 21 -10 8 0 14 5 14 10 0 6 -9 10 -21 10
-11 0 -17 -4 -14 -10z"/>
<path d="M3893 10495 c-8 -22 6 -33 17 -15 13 20 12 30 0 30 -6 0 -13 -7 -17
-15z"/>
<path d="M4852 10498 c6 -18 28 -21 28 -4 0 9 -7 16 -16 16 -9 0 -14 -5 -12
-12z"/>
<path d="M5920 10500 c0 -5 9 -10 20 -10 11 0 20 5 20 10 0 6 -9 10 -20 10
-11 0 -20 -4 -20 -10z"/>
<path d="M2660 10436 c0 -8 5 -18 10 -21 6 -3 10 3 10 14 0 12 -4 21 -10 21
-5 0 -10 -6 -10 -14z"/>
<path d="M4680 10436 c0 -8 5 -18 10 -21 6 -3 10 1 10 9 0 8 -4 18 -10 21 -5
3 -10 -1 -10 -9z"/>
<path d="M6082 10434 c4 -21 22 -23 26 -1 2 10 -3 17 -13 17 -10 0 -15 -6 -13
-16z"/>
<path d="M4250 10410 c0 -13 5 -20 13 -17 6 2 12 10 12 17 0 7 -6 15 -12 18
-8 2 -13 -5 -13 -18z"/>
<path d="M4495 10420 c-4 -6 -3 -16 3 -22 6 -6 12 -6 17 2 4 6 3 16 -3 22 -6
6 -12 6 -17 -2z"/>
<path d="M2476 10405 c-3 -9 0 -15 9 -15 8 0 15 7 15 15 0 8 -4 15 -9 15 -5 0
-11 -7 -15 -15z"/>
<path d="M6272 10406 c1 -10 8 -17 13 -17 15 1 12 24 -3 29 -9 3 -13 -2 -10
-12z"/>
<path d="M3957 10383 c-4 -3 -7 -13 -7 -21 0 -12 3 -12 15 -2 8 7 15 16 15 21
0 11 -14 12 -23 2z"/>
<path d="M4790 10383 c0 -5 4 -15 10 -23 11 -18 25 -7 17 15 -6 15 -27 21 -27
8z"/>
<path d="M2874 10344 c3 -9 6 -18 6 -20 0 -2 5 -4 10 -4 6 0 10 9 10 20 0 12
-7 20 -16 20 -11 0 -14 -5 -10 -16z"/>
<path d="M4130 10325 c0 -8 7 -15 15 -15 8 0 15 7 15 15 0 8 -7 15 -15 15 -8
0 -15 -7 -15 -15z"/>
<path d="M4615 10331 c-6 -11 9 -23 19 -14 9 9 7 23 -3 23 -6 0 -12 -4 -16 -9z"/>
<path d="M4014 10266 c-8 -22 3 -33 18 -18 9 9 9 15 0 24 -9 9 -13 7 -18 -6z"/>
<path d="M4732 10264 c4 -21 22 -23 26 -1 2 10 -3 17 -13 17 -10 0 -15 -6 -13
-16z"/>
<path d="M4550 10246 c0 -22 17 -28 24 -10 9 22 8 24 -9 24 -8 0 -15 -6 -15
-14z"/>
<path d="M3907 10233 c-4 -3 -7 -13 -7 -21 0 -12 3 -12 15 -2 8 7 15 16 15 21
0 11 -14 12 -23 2z"/>
<path d="M4838 10220 c12 -11 26 -20 32 -20 8 0 8 6 0 20 -6 11 -20 20 -32 20
l-22 0 22 -20z"/>
<path d="M5930 10221 c0 -26 16 -35 24 -15 10 25 7 34 -9 34 -8 0 -15 -9 -15
-19z"/>
<path d="M5816 10194 c-9 -22 -8 -24 9 -24 8 0 15 6 15 14 0 22 -17 28 -24 10z"/>
<path d="M3796 10191 c-3 -5 1 -14 9 -21 13 -10 15 -9 15 9 0 21 -14 28 -24
12z"/>
<path d="M4947 10194 c-8 -8 3 -34 14 -34 5 0 9 9 9 20 0 19 -11 26 -23 14z"/>
<path d="M2630 10171 c0 -5 7 -14 15 -21 13 -10 15 -9 15 9 0 12 -6 21 -15 21
-8 0 -15 -4 -15 -9z"/>
<path d="M4080 10165 c0 -8 4 -15 9 -15 5 0 14 7 21 15 10 13 9 15 -9 15 -12
0 -21 -6 -21 -15z"/>
<path d="M4670 10160 c0 -11 5 -20 10 -20 6 0 10 9 10 20 0 11 -4 20 -10 20
-5 0 -10 -9 -10 -20z"/>
<path d="M6115 10169 c-4 -6 -5 -13 -2 -16 7 -7 27 6 27 18 0 12 -17 12 -25
-2z"/>
<path d="M2752 10108 c6 -18 28 -21 28 -4 0 9 -7 16 -16 16 -9 0 -14 -5 -12
-12z"/>
<path d="M3960 10099 c0 -11 5 -17 10 -14 6 3 10 13 10 21 0 8 -4 14 -10 14
-5 0 -10 -9 -10 -21z"/>
<path d="M4780 10116 c0 -2 7 -9 15 -16 12 -10 15 -10 15 4 0 9 -7 16 -15 16
-8 0 -15 -2 -15 -4z"/>
<path d="M5997 10113 c-4 -3 -7 -13 -7 -21 0 -12 3 -12 15 -2 8 7 15 16 15 21
0 11 -14 12 -23 2z"/>
<path d="M2570 10090 c-12 -7 -12 -12 -2 -22 9 -9 15 -9 24 0 16 16 -2 34 -22
22z"/>
<path d="M6174 10089 c-8 -14 11 -33 25 -25 6 4 11 11 11 16 0 13 -29 20 -36
9z"/>
<path d="M4142 10078 c7 -19 38 -22 38 -4 0 10 -9 16 -21 16 -12 0 -19 -5 -17
-12z"/>
<path d="M4597 10084 c-9 -10 2 -24 19 -24 8 0 14 7 14 15 0 15 -21 21 -33 9z"/>
<path d="M2875 10070 c-7 -12 2 -30 16 -30 12 0 12 27 0 35 -5 3 -12 1 -16 -5z"/>
<path d="M5071 10020 c1 -42 1 -43 10 -18 7 18 7 33 0 45 -8 14 -10 9 -10 -27z"/>
<path d="M3686 10042 c-4 -7 -4 -27 -1 -44 6 -26 9 -29 17 -14 11 20 -4 77
-16 58z"/>
<path d="M3747 10034 c-8 -8 1 -24 14 -24 5 0 9 7 9 15 0 15 -12 20 -23 9z"/>
<path d="M5000 10025 c0 -9 5 -15 11 -13 6 2 11 8 11 13 0 5 -5 11 -11 13 -6
2 -11 -4 -11 -13z"/>
<path d="M6055 10017 c-4 -10 -5 -21 -1 -24 10 -10 18 4 13 24 -4 17 -4 17
-12 0z"/>
<path d="M4730 10005 c0 -8 5 -15 10 -15 6 0 10 7 10 15 0 8 -4 15 -10 15 -5
0 -10 -7 -10 -15z"/>
<path d="M4213 9952 c-27 -26 -28 -32 -9 -32 18 0 39 25 34 42 -2 9 -10 6 -25
-10z"/>
<path d="M2511 9951 c-11 -19 -9 -21 21 -21 23 0 29 3 19 9 -7 5 -17 14 -21
21 -6 9 -11 7 -19 -9z"/>
<path d="M4530 9962 c0 -4 6 -17 14 -28 11 -14 18 -16 26 -8 8 8 4 15 -14 28
-15 9 -26 13 -26 8z"/>
<path d="M6236 9954 c-9 -22 -8 -24 9 -24 8 0 15 6 15 14 0 22 -17 28 -24 10z"/>
<path d="M3060 9930 c0 -19 3 -21 12 -12 9 9 9 15 0 24 -9 9 -12 7 -12 -12z"/>
<path d="M5694 9939 c-3 -6 -1 -16 5 -22 8 -8 11 -5 11 11 0 24 -5 28 -16 11z"/>
<path d="M6120 9911 c0 -12 5 -21 10 -21 6 0 10 6 10 14 0 8 -4 18 -10 21 -5
3 -10 -3 -10 -14z"/>
<path d="M4650 9905 c0 -8 5 -15 10 -15 6 0 10 7 10 15 0 8 -4 15 -10 15 -5 0
-10 -7 -10 -15z"/>
<path d="M4942 9913 c-10 -4 -10 -8 -1 -19 15 -18 29 -18 29 0 0 18 -11 25
-28 19z"/>
<path d="M3690 9908 c0 -2 -4 -18 -9 -36 -9 -31 -9 -33 12 -26 41 12 48 27 21
47 -13 10 -24 17 -24 15z"/>
<path d="M3805 9899 c-4 -6 -5 -13 -2 -16 7 -7 27 6 27 18 0 12 -17 12 -25 -2z"/>
<path d="M5840 9900 c0 -5 7 -10 15 -10 8 0 15 5 15 10 0 6 -7 10 -15 10 -8 0
-15 -4 -15 -10z"/>
<path d="M5051 9885 l-25 -13 32 -16 c42 -22 59 -21 40 2 -9 9 -17 22 -19 29
-3 9 -10 8 -28 -2z"/>
<path d="M3023 9882 c-16 -10 22 -56 42 -48 12 4 13 10 3 31 -11 26 -24 30
-45 17z"/>
<path d="M5700 9860 c0 -36 15 -38 40 -8 22 27 17 38 -16 38 -20 0 -24 -5 -24
-30z"/>
<path d="M3985 9841 c-6 -11 9 -23 19 -14 9 9 7 23 -3 23 -6 0 -12 -4 -16 -9z"/>
<path d="M4752 9838 c7 -19 38 -22 38 -4 0 10 -9 16 -21 16 -12 0 -19 -5 -17
-12z"/>
<path d="M6015 9839 c-12 -19 5 -23 22 -6 16 16 16 17 1 17 -9 0 -20 -5 -23
-11z"/>
<path d="M3864 9786 c-8 -22 3 -33 18 -18 9 9 9 15 0 24 -9 9 -13 7 -18 -6z"/>
<path d="M4884 9789 c-3 -6 -1 -16 5 -22 8 -8 11 -5 11 11 0 24 -5 28 -16 11z"/>
<path d="M2667 9764 c-8 -8 1 -24 14 -24 5 0 9 7 9 15 0 15 -12 20 -23 9z"/>
<path d="M4050 9755 c0 -8 5 -15 10 -15 6 0 10 7 10 15 0 8 -4 15 -10 15 -5 0
-10 -7 -10 -15z"/>
<path d="M4700 9755 c0 -8 5 -15 10 -15 6 0 10 7 10 15 0 8 -4 15 -10 15 -5 0
-10 -7 -10 -15z"/>
<path d="M6080 9755 c0 -9 5 -15 11 -13 6 2 11 8 11 13 0 5 -5 11 -11 13 -6 2
-11 -4 -11 -13z"/>
<path d="M2960 9746 c0 -15 18 -31 26 -23 7 7 -7 37 -17 37 -5 0 -9 -6 -9 -14z"/>
<path d="M5787 9743 c-12 -11 -8 -23 8 -23 8 0 15 7 15 15 0 16 -12 20 -23 8z"/>
<path d="M3760 9730 c0 -5 7 -10 15 -10 8 0 15 5 15 10 0 6 -7 10 -15 10 -8 0
-15 -4 -15 -10z"/>
<path d="M2780 9686 c0 -17 14 -29 23 -20 8 8 -3 34 -14 34 -5 0 -9 -6 -9 -14z"/>
<path d="M3940 9690 c0 -5 7 -10 15 -10 8 0 15 5 15 10 0 6 -7 10 -15 10 -8 0
-15 -4 -15 -10z"/>
<path d="M4792 9688 c3 -7 13 -15 22 -16 12 -3 17 1 14 10 -3 7 -13 15 -22 16
-12 3 -17 -1 -14 -10z"/>
<path d="M5965 9691 c-7 -12 12 -24 25 -16 11 7 4 25 -10 25 -5 0 -11 -4 -15
-9z"/>
<path d="M4890 9634 c0 -10 31 -36 37 -31 10 10 -6 37 -22 37 -8 0 -15 -3 -15
-6z"/>
<path d="M5865 9630 c-7 -12 2 -30 15 -30 5 0 14 9 20 20 9 17 8 20 -9 20 -11
0 -23 -4 -26 -10z"/>
<path d="M3740 9570 c0 -13 5 -20 13 -17 6 2 12 10 12 17 0 7 -6 15 -12 18 -8
2 -13 -5 -13 -18z"/>
<path d="M2968 9568 c9 -9 15 -9 24 0 9 9 7 12 -12 12 -19 0 -21 -3 -12 -12z"/>
<path d="M5002 9568 c6 -18 28 -21 28 -4 0 9 -7 16 -16 16 -9 0 -14 -5 -12
-12z"/>
<path d="M5768 9568 c9 -9 15 -9 24 0 9 9 7 12 -12 12 -19 0 -21 -3 -12 -12z"/>
<path d="M2795 9530 c10 -11 22 -20 27 -20 4 0 8 9 8 20 0 15 -7 20 -27 20
-25 0 -26 0 -8 -20z"/>
<path d="M3922 9534 c4 -21 22 -23 26 -1 2 10 -3 17 -13 17 -10 0 -15 -6 -13
-16z"/>
<path d="M4826 9525 c4 -8 10 -12 15 -9 14 8 10 24 -6 24 -9 0 -12 -6 -9 -15z"/>
<path d="M3810 9460 c0 -19 3 -21 12 -12 9 9 9 15 0 24 -9 9 -12 7 -12 -12z"/>
<path d="M4945 9470 c-4 -6 -3 -16 3 -22 6 -6 12 -6 17 2 4 6 3 16 -3 22 -6 6
-12 6 -17 -2z"/>
<path d="M5060 9410 c13 -24 35 -27 26 -4 -3 9 -6 18 -6 20 0 2 -7 4 -15 4
-13 0 -14 -4 -5 -20z"/>
<path d="M5723 9415 c-8 -22 6 -33 17 -15 13 20 12 30 0 30 -6 0 -13 -7 -17
-15z"/>
<path d="M2847 9373 c-12 -11 -8 -23 8 -23 8 0 15 7 15 15 0 16 -12 20 -23 8z"/>
<path d="M3870 9365 c0 -8 5 -15 10 -15 6 0 10 7 10 15 0 8 -4 15 -10 15 -5 0
-10 -7 -10 -15z"/>
<path d="M5900 9366 c0 -9 7 -16 16 -16 9 0 14 5 12 12 -6 18 -28 21 -28 4z"/>
<path d="M2962 9299 c2 -7 10 -15 17 -17 8 -3 12 1 9 9 -2 7 -10 15 -17 17 -8
3 -12 -1 -9 -9z"/>
<path d="M4992 9298 c6 -18 28 -21 28 -4 0 9 -7 16 -16 16 -9 0 -14 -5 -12
-12z"/>
<path d="M5785 9299 c-4 -6 -5 -13 -2 -16 7 -7 27 6 27 18 0 12 -17 12 -25 -2z"/>
<path d="M5100 8993 c0 -21 3 -24 9 -14 5 8 7 20 4 28 -8 21 -13 15 -13 -14z"/>
<path d="M2960 6785 c0 -8 5 -15 10 -15 6 0 10 7 10 15 0 8 -4 15 -10 15 -5 0
-10 -7 -10 -15z"/>
<path d="M2850 6774 c0 -14 3 -15 18 -3 9 7 19 15 21 16 2 2 -5 3 -17 3 -14 0
-22 -6 -22 -16z"/>
<path d="M5036 6774 c-12 -31 3 -34 22 -4 10 16 10 20 -2 20 -8 0 -17 -7 -20
-16z"/>
<path d="M3652 6703 c-10 -4 -10 -8 -1 -19 15 -18 29 -18 29 0 0 18 -11 25
-28 19z"/>
<path d="M5840 6693 c0 -5 4 -15 10 -23 11 -18 25 -7 17 15 -6 15 -27 21 -27
8z"/>
<path d="M5962 6649 c1 -12 9 -24 16 -27 9 -3 13 3 10 19 -1 12 -9 24 -16 27
-9 3 -13 -3 -10 -19z"/>
<path d="M2900 6645 c0 -8 5 -15 10 -15 6 0 10 7 10 15 0 8 -4 15 -10 15 -5 0
-10 -7 -10 -15z"/>
<path d="M3475 6650 c-4 -6 -3 -16 3 -22 6 -6 12 -6 17 2 4 6 3 16 -3 22 -6 6
-12 6 -17 -2z"/>
<path d="M3780 6640 c0 -19 3 -21 12 -12 9 9 9 15 0 24 -9 9 -12 7 -12 -12z"/>
<path d="M5662 6643 c5 -25 28 -28 28 -4 0 12 -6 21 -16 21 -9 0 -14 -7 -12
-17z"/>
<path d="M5790 6579 c0 -11 5 -17 10 -14 6 3 10 13 10 21 0 8 -4 14 -10 14 -5
0 -10 -9 -10 -21z"/>
<path d="M2964 6537 c-9 -24 6 -44 18 -22 7 11 6 21 -1 28 -7 7 -12 6 -17 -6z"/>
<path d="M5900 6536 c0 -8 5 -18 10 -21 6 -3 10 3 10 14 0 12 -4 21 -10 21 -5
0 -10 -6 -10 -14z"/>
<path d="M5150 6526 c0 -8 5 -18 10 -21 6 -3 10 3 10 14 0 12 -4 21 -10 21 -5
0 -10 -6 -10 -14z"/>
<path d="M3142 6489 c2 -6 8 -10 13 -10 5 0 11 4 13 10 2 6 -4 11 -13 11 -9 0
-15 -5 -13 -11z"/>
<path d="M3530 6485 c0 -8 5 -15 10 -15 6 0 10 7 10 15 0 8 -4 15 -10 15 -5 0
-10 -7 -10 -15z"/>
<path d="M5035 6490 c-11 -17 5 -32 21 -19 7 6 11 15 8 20 -7 12 -21 11 -29
-1z"/>
<path d="M5332 6489 c2 -6 8 -10 13 -10 5 0 11 4 13 10 2 6 -4 11 -13 11 -9 0
-15 -5 -13 -11z"/>
<path d="M2746 6463 c-12 -12 -5 -23 14 -23 11 0 20 4 20 9 0 11 -26 22 -34
14z"/>
<path d="M3925 6460 c-8 -13 4 -32 16 -25 12 8 12 35 0 35 -6 0 -13 -4 -16
-10z"/>
<path d="M4926 6456 c7 -18 29 -21 39 -6 3 6 2 10 -4 10 -5 0 -17 3 -25 6 -12
5 -15 2 -10 -10z"/>
<path d="M6112 6449 c2 -6 8 -10 13 -10 5 0 11 4 13 10 2 6 -4 11 -13 11 -9 0
-15 -5 -13 -11z"/>
<path d="M3024 6426 c-8 -22 3 -33 18 -18 9 9 9 15 0 24 -9 9 -13 7 -18 -6z"/>
<path d="M3654 6429 c-3 -6 -1 -16 5 -22 8 -8 11 -5 11 11 0 24 -5 28 -16 11z"/>
<path d="M5840 6425 c0 -8 5 -15 10 -15 6 0 10 7 10 15 0 8 -4 15 -10 15 -5 0
-10 -7 -10 -15z"/>
<path d="M5210 6414 c0 -9 5 -14 12 -12 18 6 21 28 4 28 -9 0 -16 -7 -16 -16z"/>
<path d="M4050 6370 c0 -16 5 -30 10 -30 6 0 10 14 10 30 0 17 -4 30 -10 30
-5 0 -10 -13 -10 -30z"/>
<path d="M6240 6369 c0 -17 4 -28 10 -24 6 3 10 17 10 31 0 13 -4 24 -10 24
-5 0 -10 -14 -10 -31z"/>
<path d="M2626 6376 c3 -9 11 -16 16 -16 13 0 5 23 -10 28 -7 2 -10 -2 -6 -12z"/>
<path d="M2910 6371 c0 -12 5 -21 10 -21 6 0 10 6 10 14 0 8 -4 18 -10 21 -5
3 -10 -3 -10 -14z"/>
<path d="M5100 6365 c0 -8 5 -15 10 -15 6 0 10 7 10 15 0 8 -4 15 -10 15 -5 0
-10 -7 -10 -15z"/>
<path d="M3090 6330 c0 -13 5 -20 13 -17 6 2 12 10 12 17 0 7 -6 15 -12 18 -8
2 -13 -5 -13 -18z"/>
<path d="M3580 6335 c-7 -9 -10 -18 -7 -21 10 -11 37 5 37 21 0 19 -14 19 -30
0z"/>
<path d="M2806 6324 c-8 -21 -8 -24 4 -24 5 0 14 9 20 20 8 16 8 20 -4 20 -7
0 -17 -7 -20 -16z"/>
<path d="M6054 6324 c3 -9 6 -21 6 -27 0 -8 3 -8 11 0 13 13 5 43 -12 43 -6 0
-8 -7 -5 -16z"/>
<path d="M3870 6306 c0 -31 6 -34 13 -6 3 11 1 23 -4 26 -5 3 -9 -6 -9 -20z"/>
<path d="M4795 6298 c-9 -22 4 -43 17 -30 7 7 7 16 0 29 -10 17 -11 17 -17 1z"/>
<path d="M3985 6290 c-7 -12 2 -30 16 -30 5 0 9 9 9 20 0 21 -15 27 -25 10z"/>
<path d="M6175 6281 c-6 -11 9 -23 19 -14 9 9 7 23 -3 23 -6 0 -12 -4 -16 -9z"/>
<path d="M2987 6273 c-12 -12 -7 -22 8 -17 8 4 15 10 15 15 0 11 -14 12 -23 2z"/>
<path d="M3682 6268 c3 -7 12 -14 21 -16 12 -2 15 1 11 12 -7 19 -38 22 -32 4z"/>
<path d="M5165 6271 c-10 -17 11 -21 31 -6 18 14 18 14 -3 15 -12 0 -24 -4
-28 -9z"/>
<path d="M5872 6269 c2 -7 10 -15 17 -17 8 -3 12 1 9 9 -2 7 -10 15 -17 17 -8
3 -12 -1 -9 -9z"/>
<path d="M3800 6211 c0 -12 26 -32 33 -25 9 10 -4 34 -19 34 -8 0 -14 -4 -14
-9z"/>
<path d="M5040 6199 c0 -18 2 -19 15 -9 8 7 15 16 15 21 0 5 -7 9 -15 9 -9 0
-15 -9 -15 -21z"/>
<path d="M5990 6212 c0 -11 22 -32 32 -32 5 0 4 9 -2 20 -11 20 -30 28 -30 12z"/>
<path d="M3110 6186 c0 -8 5 -18 10 -21 6 -3 10 3 10 14 0 12 -4 21 -10 21 -5
0 -10 -6 -10 -14z"/>
<path d="M3570 6175 c1 -26 2 -28 11 -12 8 14 8 22 0 30 -8 8 -11 3 -11 -18z"/>
<path d="M5304 6189 c-3 -6 -1 -16 5 -22 8 -8 11 -5 11 11 0 24 -5 28 -16 11z"/>
<path d="M3622 6178 c3 -7 13 -15 22 -16 12 -3 17 1 14 10 -3 7 -13 15 -22 16
-12 3 -17 -1 -14 -10z"/>
<path d="M5220 6180 c0 -5 7 -10 15 -10 8 0 15 5 15 10 0 6 -7 10 -15 10 -8 0
-15 -4 -15 -10z"/>
<path d="M5760 6168 c0 -19 2 -20 10 -8 13 19 13 30 0 30 -5 0 -10 -10 -10
-22z"/>
<path d="M5812 6178 c6 -18 28 -21 28 -4 0 9 -7 16 -16 16 -9 0 -14 -5 -12
-12z"/>
<path d="M3937 6163 c-12 -12 -7 -22 8 -17 8 4 15 10 15 15 0 11 -14 12 -23 2z"/>
<path d="M2635 6140 c-4 -6 -3 -16 3 -22 6 -6 12 -6 17 2 4 6 3 16 -3 22 -6 6
-12 6 -17 -2z"/>
<path d="M4042 6134 c1 -9 9 -19 16 -22 9 -3 13 2 10 14 -1 9 -9 19 -16 22 -9
3 -13 -2 -10 -14z"/>
<path d="M4824 6136 c-8 -22 3 -33 18 -18 9 9 9 15 0 24 -9 9 -13 7 -18 -6z"/>
<path d="M6235 6140 c-4 -6 -3 -16 3 -22 6 -6 12 -6 17 2 4 6 3 16 -3 22 -6 6
-12 6 -17 -2z"/>
<path d="M3095 6131 c-3 -5 -1 -12 5 -16 12 -7 30 2 30 16 0 12 -27 12 -35 0z"/>
<path d="M3582 6129 c2 -7 10 -15 17 -17 8 -3 12 1 9 9 -2 7 -10 15 -17 17 -8
3 -12 -1 -9 -9z"/>
<path d="M5100 6111 c0 -12 5 -21 10 -21 6 0 10 6 10 14 0 8 -4 18 -10 21 -5
3 -10 -3 -10 -14z"/>
<path d="M3057 6057 c-3 -9 -17 -17 -29 -17 -35 0 -47 -12 -41 -43 6 -33 29
-36 38 -4 4 12 16 29 27 38 12 9 19 22 16 30 -3 10 -6 9 -11 -4z"/>
<path d="M3630 6058 c0 -10 4 -18 9 -18 5 0 16 -16 26 -36 13 -29 19 -33 31
-23 8 6 14 22 14 35 0 20 -5 24 -30 24 -17 0 -33 7 -39 18 -10 16 -10 16 -11
0z"/>
<path d="M5246 6055 c-3 -9 -19 -15 -41 -15 -38 0 -40 -5 -25 -45 11 -28 30
-25 30 4 0 10 11 23 25 29 14 6 25 18 25 27 0 19 -6 19 -14 0z"/>
<path d="M5820 6062 c0 -7 8 -22 19 -33 11 -12 17 -29 14 -40 -7 -26 23 -26
37 0 18 35 12 51 -20 51 -17 0 -33 7 -39 18 -6 10 -11 12 -11 4z"/>
<path d="M2796 6052 c-7 -12 22 -38 31 -28 4 3 0 14 -9 22 -9 10 -18 12 -22 6z"/>
<path d="M4980 6046 c0 -9 7 -16 16 -16 9 0 14 5 12 12 -6 18 -28 21 -28 4z"/>
<path d="M4860 6010 c0 -5 10 -10 23 -10 18 0 19 2 7 10 -19 13 -30 13 -30 0z"/>
<path d="M6177 6013 c-12 -11 -8 -23 8 -23 8 0 15 7 15 15 0 16 -12 20 -23 8z"/>
<path d="M2850 5962 c0 -12 9 -26 20 -32 16 -8 20 -8 20 3 0 8 -9 22 -20 32
-19 18 -20 17 -20 -3z"/>
<path d="M5997 5954 c-8 -8 1 -24 14 -24 5 0 9 7 9 15 0 15 -12 20 -23 9z"/>
<path d="M3954 5904 c3 -9 6 -18 6 -20 0 -2 7 -4 15 -4 13 0 13 3 3 20 -15 24
-33 27 -24 4z"/>
<path d="M6142 5908 c2 -6 10 -14 16 -16 7 -2 10 2 6 12 -7 18 -28 22 -22 4z"/>
<path d="M4060 5882 c0 -5 7 -16 16 -23 14 -12 16 -11 13 5 -4 20 -29 35 -29
18z"/>
<path d="M4796 5874 c-9 -24 -7 -28 9 -14 17 14 20 30 6 30 -5 0 -12 -7 -15
-16z"/>
<path d="M3894 5817 c-8 -21 2 -35 16 -21 5 5 6 15 0 24 -8 12 -10 12 -16 -3z"/>
<path d="M2780 5800 c0 -13 5 -20 13 -17 6 2 12 10 12 17 0 7 -6 15 -12 18 -8
2 -13 -5 -13 -18z"/>
<path d="M4970 5805 c0 -8 5 -15 10 -15 6 0 10 7 10 15 0 8 -4 15 -10 15 -5 0
-10 -7 -10 -15z"/>
<path d="M2663 5755 c-8 -22 6 -33 17 -15 13 20 12 30 0 30 -6 0 -13 -7 -17
-15z"/>
<path d="M4010 5756 c0 -15 18 -31 26 -23 7 7 -7 37 -17 37 -5 0 -9 -6 -9 -14z"/>
<path d="M4853 5754 c-3 -8 -1 -20 6 -27 8 -8 11 -8 11 0 0 6 3 18 6 27 3 9 1
16 -5 16 -7 0 -14 -7 -18 -16z"/>
<path d="M2545 5720 c-10 -17 12 -37 25 -24 8 8 6 15 -4 23 -10 9 -16 9 -21 1z"/>
<path d="M6307 5713 c-13 -13 -7 -21 13 -16 11 3 20 9 20 14 0 10 -24 12 -33
2z"/>
<path d="M2730 5640 c0 -19 3 -21 12 -12 9 9 9 15 0 24 -9 9 -12 7 -12 -12z"/>
<path d="M4916 5644 c-4 -9 -4 -19 -1 -22 3 -3 11 0 17 6 9 9 9 15 1 23 -7 7
-12 5 -17 -7z"/>
<path d="M1705 7629 c-10 -15 3 -25 16 -12 7 7 7 13 1 17 -6 3 -14 1 -17 -5z"/>
<path d="M6985 7630 c-7 -12 2 -30 16 -30 5 0 9 9 9 20 0 21 -15 27 -25 10z"/>
<path d="M880 4098 c-7 -18 -16 -46 -20 -63 -25 -90 -152 -367 -260 -565 -22
-41 -38 -80 -36 -86 3 -7 20 -24 40 -39 l35 -27 127 94 c70 51 191 141 270
200 79 59 146 104 148 99 5 -7 -13 -60 -79 -236 -20 -55 -43 -116 -50 -135 -7
-19 -32 -79 -54 -133 -23 -54 -41 -105 -41 -112 0 -18 48 -55 71 -55 10 0 100
68 199 151 219 183 343 277 416 315 55 28 74 44 56 44 -5 0 -30 16 -55 35 -25
19 -48 35 -50 35 -3 0 -16 -19 -30 -42 -29 -49 -134 -152 -257 -253 -47 -38
-87 -72 -90 -75 -15 -16 -109 -90 -114 -90 -14 0 -4 42 25 111 17 41 37 91 45
112 18 47 33 86 85 222 32 81 52 118 79 143 l35 33 -30 25 c-16 14 -49 38 -72
54 -38 26 -43 27 -55 12 -8 -10 -19 -29 -25 -43 -15 -36 -135 -142 -273 -240
-145 -104 -196 -139 -204 -139 -10 0 -7 38 3 44 20 13 261 512 261 542 0 21
-10 40 -33 62 -41 40 -52 40 -67 0z"/>
<path d="M7772 3900 c-18 -4 -49 -19 -70 -32 -74 -50 -242 -189 -242 -201 0
-8 14 -26 31 -43 69 -65 396 -519 414 -574 3 -11 11 -20 17 -20 15 0 108 70
108 82 0 5 -18 29 -39 51 -49 52 -181 225 -181 237 0 17 32 40 55 40 14 0 39
-6 57 -14 41 -17 94 -35 133 -46 17 -5 75 -23 130 -40 116 -36 140 -33 193 18
l37 36 -65 11 c-62 11 -102 22 -180 50 -19 7 -75 26 -123 41 -124 39 -124 40
-97 100 53 118 8 265 -93 303 -32 12 -38 12 -85 1z m64 -145 c82 -85 83 -165
5 -246 -26 -27 -54 -49 -63 -49 -26 0 -178 216 -178 252 0 10 23 33 52 53 41
27 63 35 97 35 40 0 49 -5 87 -45z"/>
<path d="M7270 3594 c-99 -48 -175 -83 -223 -102 -34 -14 -44 -37 -26 -58 15
-19 34 -50 48 -81 5 -12 30 -63 55 -115 73 -152 183 -414 190 -452 4 -19 12
-38 17 -42 6 -3 34 4 63 16 28 13 74 34 103 47 28 13 54 23 57 23 16 0 176 84
191 100 14 16 15 24 5 54 -6 20 -16 36 -22 36 -6 0 -27 -19 -48 -42 -25 -28
-72 -60 -133 -92 -85 -44 -97 -48 -113 -35 -23 18 -125 233 -127 267 -2 23 8
31 82 72 92 51 150 105 132 123 -7 7 -16 6 -28 -4 -24 -20 -197 -99 -217 -99
-14 0 -86 134 -86 159 0 4 -7 22 -16 39 -30 61 -18 80 71 118 51 21 97 33 127
34 26 0 50 5 54 11 8 13 -27 63 -47 66 -8 1 -57 -18 -109 -43z"/>
<path d="M1725 3559 c-4 -6 -13 -34 -20 -62 -25 -102 -245 -588 -279 -616 -28
-23 -18 -41 39 -67 67 -29 85 -30 85 -5 0 31 60 184 137 351 19 41 51 111 71
155 20 44 51 103 69 131 18 28 33 56 33 63 0 12 -94 61 -117 61 -6 0 -15 -5
-18 -11z"/>
<path d="M1975 3443 c-3 -8 -5 -24 -5 -35 0 -26 -47 -183 -109 -363 -6 -16
-25 -73 -42 -125 -17 -52 -45 -121 -61 -154 -19 -37 -26 -62 -20 -68 5 -5 89
-36 186 -69 192 -65 202 -65 231 -9 8 16 15 30 15 32 0 2 -44 4 -97 4 -79 1
-107 5 -145 23 -29 13 -48 28 -48 39 0 57 193 614 226 653 29 33 11 51 -76 73
-42 11 -50 11 -55 -1z"/>
<path d="M6750 3384 c-36 -14 -112 -41 -170 -61 -58 -19 -109 -39 -113 -43 -5
-4 3 -34 18 -66 30 -65 85 -213 117 -314 12 -36 34 -103 49 -150 16 -47 35
-116 43 -154 8 -37 17 -70 20 -73 6 -6 359 109 403 131 36 19 43 32 36 70 -8
39 -32 45 -56 12 -21 -30 -76 -59 -185 -101 -97 -36 -92 -40 -151 135 -12 36
-28 84 -36 108 l-15 43 48 21 c157 67 217 107 194 130 -9 9 -20 8 -44 -4 -18
-9 -53 -24 -78 -33 -25 -9 -60 -23 -79 -31 -18 -8 -41 -12 -50 -9 -22 7 -82
179 -84 241 -2 44 -1 46 37 59 75 26 176 47 200 41 31 -8 38 10 19 47 -17 33
-37 34 -123 1z"/>
<path d="M2457 3283 c-4 -3 -7 -20 -7 -36 0 -40 -28 -200 -46 -259 -8 -26 -14
-55 -14 -65 0 -30 -50 -240 -81 -339 -10 -33 -19 -63 -19 -66 0 -15 137 -53
303 -84 114 -21 183 -12 275 34 136 68 230 240 232 420 1 205 -120 320 -375
356 -66 10 -148 24 -182 32 -71 16 -77 17 -86 7z m307 -104 c82 -33 133 -76
166 -142 27 -55 30 -69 30 -161 0 -152 -42 -257 -132 -328 -55 -43 -86 -57
-151 -64 -63 -7 -190 25 -220 54 -19 19 -19 25 -8 104 6 46 18 112 27 148 8
36 28 128 44 205 16 77 36 157 45 179 l16 38 67 -7 c37 -4 89 -16 116 -26z"/>
<path d="M6200 3239 c-148 -32 -202 -65 -245 -150 -30 -58 -31 -97 -6 -147 35
-68 104 -114 237 -157 105 -34 158 -67 178 -109 37 -77 9 -159 -69 -203 -58
-33 -154 -32 -214 2 -23 14 -47 25 -52 25 -16 0 -10 -78 7 -95 14 -14 35 -16
128 -12 131 5 173 18 235 74 114 101 128 230 36 320 -48 46 -102 73 -198 99
-79 22 -126 46 -161 83 -22 23 -28 38 -28 77 0 44 4 52 38 82 21 18 56 37 78
43 40 11 118 8 164 -6 20 -7 22 -4 22 24 0 45 -16 71 -43 70 -12 -1 -60 -9
-107 -20z"/>
<path d="M5693 3133 c-51 -5 -72 -26 -54 -55 14 -22 40 -154 48 -240 l5 -57
-38 -10 c-34 -9 -84 -16 -275 -38 -53 -6 -51 -9 -68 91 -6 33 -11 101 -11 152
0 51 -3 95 -7 97 -11 7 -126 -13 -137 -24 -6 -5 -5 -19 2 -34 16 -34 42 -162
52 -255 5 -41 16 -127 25 -190 8 -63 17 -155 19 -204 2 -48 9 -93 14 -98 10
-10 119 -1 127 11 2 4 -4 45 -15 92 -26 119 -48 269 -43 290 4 13 19 19 62 24
31 3 81 10 111 15 30 5 83 12 117 16 56 6 62 5 73 -15 14 -27 31 -166 34 -281
l3 -85 54 -3 c33 -2 61 2 71 10 16 12 16 18 -2 98 -36 161 -80 496 -80 611 0
61 -3 78 -16 83 -9 3 -19 5 -22 4 -4 -1 -26 -3 -49 -5z"/>
<path d="M3517 3074 c-3 -3 -3 -27 0 -53 5 -48 -30 -469 -48 -568 -6 -32 -18
-80 -26 -106 -9 -28 -12 -52 -7 -57 5 -5 29 -10 53 -12 l44 -3 3 145 c2 80 8
177 13 215 6 39 11 118 11 177 0 105 5 138 20 138 4 0 10 -10 13 -22 3 -13 24
-77 46 -143 23 -66 48 -142 56 -170 12 -40 91 -284 111 -345 4 -11 11 -8 30
15 13 17 24 33 24 37 0 15 282 578 290 578 4 0 10 -6 12 -12 9 -26 -14 -515
-27 -573 -8 -33 -11 -63 -7 -66 12 -11 127 -19 141 -10 12 8 12 16 0 58 -25
87 -8 615 23 696 15 38 4 46 -65 48 -46 2 -60 -2 -72 -17 -8 -10 -65 -120
-126 -244 -61 -124 -121 -244 -133 -267 -32 -65 -49 -57 -75 40 -12 45 -29 98
-36 117 -7 19 -21 62 -30 95 -43 153 -86 280 -101 297 -13 13 -31 18 -74 18
-31 0 -59 -3 -63 -6z"/>
<path d="M4683 3044 c-7 -3 -13 -16 -13 -29 0 -22 -7 -47 -56 -201 -46 -147
-149 -382 -212 -487 -29 -48 -50 -92 -47 -97 9 -14 109 -12 123 2 7 7 12 30
12 51 0 21 6 53 14 70 8 18 16 41 19 52 11 41 55 157 64 166 4 4 70 9 146 11
l139 3 19 -35 c10 -19 30 -64 43 -100 35 -90 70 -173 79 -187 9 -14 113 -18
121 -5 5 8 -2 25 -32 77 -19 34 -122 255 -122 263 -1 4 -9 25 -20 47 -11 22
-19 45 -20 51 0 6 -10 33 -22 60 -12 27 -40 103 -63 169 l-42 120 -59 2 c-32
1 -65 -1 -71 -3z m85 -189 c13 -33 35 -86 48 -118 36 -88 35 -93 -37 -101 -87
-9 -157 -8 -163 3 -3 5 5 37 18 72 13 35 34 91 46 124 12 33 24 66 26 73 9 30
38 4 62 -53z"/>
<path d="M1436 1272 c-3 -5 1 -15 9 -22 12 -10 15 -40 15 -149 0 -87 -4 -141
-11 -148 -15 -15 -2 -33 24 -33 29 0 53 15 38 24 -6 4 -11 37 -11 77 0 69 0
70 33 84 52 22 71 3 75 -75 2 -36 -2 -67 -8 -75 -17 -20 -3 -35 30 -35 33 0
48 16 31 33 -6 6 -11 38 -11 72 0 80 -7 100 -36 114 -31 14 -64 14 -64 1 0 -5
-11 -10 -25 -10 -23 0 -24 3 -27 73 -3 70 -4 72 -30 75 -14 2 -29 -1 -32 -6z"/>
<path d="M4939 1111 c3 -134 1 -155 -13 -163 -27 -15 -8 -28 39 -28 48 0 66
15 40 33 -14 11 -16 30 -12 137 2 69 7 137 12 152 7 25 6 26 -32 25 l-38 -2 4
-154z"/>
<path d="M7195 1260 c-20 -4 -29 -11 -26 -21 3 -8 7 -35 9 -61 3 -40 1 -48
-18 -58 l-22 -12 21 -22 c27 -29 30 -120 5 -134 -26 -15 -7 -32 36 -32 44 0
57 12 35 30 -12 10 -15 38 -15 131 0 65 5 130 10 145 13 34 4 42 -35 34z"/>
<path d="M910 1253 c0 -5 9 -32 20 -61 11 -29 20 -65 20 -81 0 -16 7 -45 15
-64 8 -20 15 -50 15 -66 0 -38 26 -67 46 -50 8 6 14 22 14 34 0 12 7 28 15 35
8 7 15 24 15 39 0 14 7 35 15 45 8 11 15 30 15 43 0 55 27 16 59 -85 19 -59
38 -111 43 -117 14 -16 39 20 45 66 3 24 10 47 15 50 5 3 13 28 18 55 9 51 31
119 43 130 18 18 5 34 -27 34 -33 0 -33 -1 -33 -42 0 -75 -18 -166 -38 -188
-23 -25 -31 -17 -38 35 -7 54 -37 157 -50 173 -5 7 -14 11 -19 10 -11 -4 -47
-104 -48 -133 0 -11 -7 -29 -15 -39 -8 -11 -15 -31 -15 -44 0 -44 -23 -17 -42
49 -12 41 -18 85 -15 122 l3 57 -38 0 c-21 0 -38 -3 -38 -7z"/>
<path d="M2778 1115 c2 -80 1 -152 -2 -160 -9 -24 -3 -29 36 -32 40 -4 61 14
34 29 -12 7 -16 23 -16 62 0 66 19 86 80 86 56 0 46 10 -16 15 -26 2 -51 10
-56 17 -9 14 -5 81 7 111 6 14 1 17 -31 17 l-39 0 3 -145z"/>
<path d="M2985 1233 c11 -40 9 -103 -3 -115 -8 -8 -7 -19 4 -40 18 -35 9 -124
-13 -132 -27 -11 -2 -26 41 -26 23 0 45 3 48 6 3 3 -1 19 -9 36 -12 24 -15 57
-11 164 l5 134 -35 0 c-32 0 -34 -1 -27 -27z"/>
<path d="M5550 1249 c0 -6 8 -23 18 -37 11 -15 35 -57 55 -94 42 -77 51 -149
20 -167 -29 -16 -1 -33 47 -29 46 3 64 22 30 31 -37 10 -25 101 23 182 24 40
52 80 64 93 22 23 14 32 -27 32 -38 0 -40 -1 -34 -25 13 -51 -67 -166 -82
-118 -3 10 -12 30 -20 45 -8 14 -14 42 -14 62 0 35 -1 36 -40 36 -22 0 -40 -5
-40 -11z"/>
<path d="M6968 1115 c4 -125 2 -149 -12 -164 -16 -17 -16 -19 -1 -25 22 -8 70
-8 78 1 4 3 0 14 -9 24 -12 14 -15 31 -10 76 3 32 5 67 5 78 -1 11 -1 50 -2
88 0 66 0 67 -26 67 l-26 0 3 -145z"/>
<path d="M3203 1234 c-3 -8 -1 -20 6 -27 14 -14 47 15 37 32 -10 16 -36 13
-43 -5z"/>
<path d="M3673 1192 c-24 -15 -33 -61 -22 -113 6 -28 9 -62 6 -77 -10 -53 27
-89 82 -80 29 4 28 22 -1 27 -32 4 -38 17 -38 87 0 62 11 84 42 84 10 0 18 5
18 10 0 6 -9 10 -21 10 -14 0 -24 10 -32 30 -12 32 -15 34 -34 22z"/>
<path d="M7955 1164 c-15 -29 -17 -39 -7 -55 7 -10 12 -50 12 -88 0 -83 14
-104 68 -99 46 4 54 26 10 30 l-33 3 0 75 c0 70 1 75 23 78 28 4 29 28 1 37
-11 4 -24 18 -29 31 -13 33 -22 30 -45 -12z"/>
<path d="M5957 1145 c-9 -8 -22 -15 -29 -15 -26 0 -58 -57 -58 -101 0 -33 6
-47 34 -75 83 -83 204 -9 182 112 -11 56 -99 110 -129 79z m63 -37 c30 -36 34
-75 14 -118 -31 -64 -84 -61 -110 5 -16 43 -16 45 6 89 17 36 27 46 47 46 14
0 33 -10 43 -22z"/>
<path d="M1826 1133 c-33 -18 -70 -94 -62 -128 3 -12 19 -37 35 -54 27 -29 35
-32 77 -29 60 4 73 28 16 28 -48 0 -72 20 -72 61 l0 29 65 0 c74 0 85 11 65
59 -19 48 -70 62 -124 34z m76 -29 c14 -30 0 -44 -45 -44 -35 0 -44 22 -20 48
25 28 51 27 65 -4z"/>
<path d="M2168 1139 c-29 -16 -22 -41 10 -37 19 2 27 9 27 22 0 23 -14 29 -37
15z"/>
<path d="M2338 1120 c-82 -68 -47 -199 54 -200 20 0 43 3 52 6 30 12 16 24
-27 24 -51 0 -77 22 -77 63 0 27 1 27 70 27 l70 0 0 34 c0 27 -7 39 -29 55
-40 29 -70 26 -113 -9z m84 -7 c10 -9 18 -22 18 -29 0 -20 -47 -28 -77 -15
l-26 12 23 24 c28 29 37 31 62 8z"/>
<path d="M3413 1134 c-28 -12 -33 -19 -33 -49 0 -33 4 -37 55 -62 30 -15 55
-32 55 -38 0 -35 -64 -48 -86 -17 -19 25 -40 2 -25 -27 17 -31 99 -30 129 2
37 39 23 91 -25 102 -16 3 -39 14 -53 25 -24 18 -24 19 -6 39 24 27 40 26 66
-1 15 -17 23 -19 32 -10 9 9 7 16 -7 32 -21 23 -56 25 -102 4z"/>
<path d="M3923 1130 c-69 -42 -82 -118 -29 -174 43 -46 98 -50 145 -10 56 47
55 150 -2 184 -41 25 -73 25 -114 0z m96 -34 c25 -40 27 -76 6 -116 -13 -26
-21 -30 -54 -30 -36 0 -40 3 -51 36 -34 101 48 193 99 110z"/>
<path d="M4204 1136 c-16 -13 -17 -18 -6 -35 15 -26 16 -133 1 -148 -18 -18
-1 -33 36 -33 39 0 51 12 30 30 -20 17 -19 85 2 120 10 18 27 30 42 32 18 2
27 10 29 26 5 32 -31 29 -56 -5 l-20 -28 -13 28 c-14 31 -18 32 -45 13z"/>
<path d="M4468 1142 c-10 -2 -18 -10 -18 -18 0 -17 33 -103 56 -146 22 -41 17
-74 -16 -110 -28 -31 -40 -68 -22 -68 11 0 41 33 58 63 22 40 54 109 54 119 0
5 7 16 15 24 8 9 15 25 15 36 0 11 9 31 20 45 11 14 20 31 20 38 0 13 -48 27
-54 16 -2 -3 -7 -36 -11 -73 -7 -62 -9 -68 -30 -68 -27 0 -33 13 -41 85 -7 54
-15 64 -46 57z"/>
<path d="M5177 1137 c-29 -12 -43 -43 -33 -75 4 -10 26 -29 51 -41 35 -17 45
-28 45 -47 0 -21 -5 -24 -34 -24 -19 0 -42 7 -51 16 -23 24 -39 4 -19 -24 33
-48 154 -15 154 42 0 26 -19 45 -72 69 -37 16 -44 30 -32 61 8 20 50 21 58 1
7 -18 36 -20 36 -2 0 35 -47 46 -103 24z"/>
<path d="M6623 1128 c-21 -20 -23 -21 -41 -5 -34 31 -78 14 -50 -20 14 -18 12
-140 -3 -159 -13 -16 0 -24 42 -24 40 0 61 16 35 26 -12 4 -16 20 -16 55 0 55
22 99 50 99 22 0 44 25 35 40 -10 16 -29 12 -52 -12z"/>
<path d="M7460 1137 c43 -20 59 -48 60 -100 0 -27 -5 -57 -10 -68 -14 -25 -71
-26 -93 -1 -23 25 -23 109 0 134 21 23 10 34 -20 21 -14 -7 -28 -27 -37 -52
-34 -105 65 -190 154 -132 97 64 61 213 -51 210 l-28 0 25 -12z"/>
<path d="M7714 1131 c-59 -36 -52 -68 22 -106 44 -22 54 -32 52 -49 -2 -16
-11 -22 -41 -24 -26 -2 -39 1 -43 12 -8 22 -34 20 -34 -2 0 -29 21 -42 67 -42
33 0 50 6 68 25 39 38 28 87 -22 99 -15 3 -37 12 -47 21 -16 12 -18 19 -8 40
14 31 52 34 59 5 7 -25 33 -26 33 -2 0 44 -53 55 -106 23z"/>
<path d="M2065 1129 c-4 -5 0 -18 9 -28 20 -22 22 -131 4 -149 -24 -24 31 -41
75 -23 17 6 16 8 -7 19 -31 14 -35 52 -12 107 14 33 14 36 -8 60 -24 26 -50
32 -61 14z"/>
<path d="M3195 1131 c-3 -6 -3 -16 1 -23 11 -18 7 -147 -5 -162 -6 -7 -8 -16
-4 -19 8 -9 56 -9 78 -1 14 6 14 8 1 23 -10 11 -16 43 -18 101 -3 78 -5 85
-25 88 -11 2 -24 -2 -28 -7z"/>
<path d="M6198 1130 c-2 -6 -1 -42 2 -80 6 -86 31 -125 80 -125 18 0 35 6 38
13 2 7 -6 12 -22 12 -34 0 -40 13 -46 105 -5 72 -7 80 -26 83 -12 2 -24 -2
-26 -8z"/>
<path d="M6344 1058 c1 -46 -1 -89 -4 -97 -6 -18 44 -45 67 -37 14 6 14 8 0
24 -12 13 -17 42 -19 102 -3 77 -5 85 -24 88 -19 3 -20 -2 -20 -80z"/>
<path d="M7080 1110 c-11 -7 -7 -10 18 -10 17 0 32 5 32 10 0 13 -30 13 -50 0z"/>
</g>
</svg>
