<?xml version="1.0" standalone="no"?>
<!DOCTYPE svg PUBLIC "-//W3C//DTD SVG 20010904//EN"
 "http://www.w3.org/TR/2001/REC-SVG-20010904/DTD/svg10.dtd">
<svg version="1.0" xmlns="http://www.w3.org/2000/svg"
 width="300.000000pt" height="201.000000pt" viewBox="0 0 300.000000 201.000000"
 preserveAspectRatio="xMidYMid meet">
<metadata>
Created by potrace 1.10, written by Peter Selinger 2001-2011
</metadata>
<g transform="translate(0.000000,201.000000) scale(0.100000,-0.100000)"
fill="#000000" stroke="none">
<path d="M1410 1886 c-41 -25 -349 -218 -685 -429 -428 -269 -614 -391 -622
-409 -10 -19 -10 -33 -2 -56 9 -27 84 -77 547 -368 296 -186 602 -378 681
-428 106 -67 151 -90 175 -89 23 1 204 110 696 418 366 229 675 428 688 441
30 34 28 70 -5 103 -40 39 -1338 851 -1371 857 -20 4 -46 -6 -102 -40z m790
-395 c365 -230 673 -430 683 -443 37 -49 17 -67 -293 -262 -946 -594 -1063
-666 -1089 -666 -17 0 -254 143 -701 424 -709 445 -708 444 -683 499 7 15 146
108 399 267 214 134 517 324 673 422 213 133 292 178 315 178 23 -1 200 -107
696 -419z"/>
<path d="M830 1485 c-355 -223 -657 -414 -672 -425 -42 -31 -37 -63 15 -98 23
-16 327 -208 675 -426 506 -318 639 -397 660 -394 30 5 1328 815 1357 848 13
15 16 25 9 40 -13 30 -1339 860 -1372 860 -18 0 -244 -137 -672 -405z m1360
-27 c598 -375 671 -424 668 -444 -2 -19 -131 -103 -673 -444 -368 -231 -676
-420 -685 -420 -21 1 -1341 832 -1354 853 -8 13 -6 21 9 36 33 32 1329 841
1347 841 9 0 319 -190 688 -422z"/>
<path d="M1270 1630 c-19 -12 -19 -12 108 -81 114 -63 117 -71 30 -84 -60 -9
-64 7 -7 24 23 7 39 14 37 17 -3 2 -19 -1 -37 -7 -29 -10 -35 -9 -60 15 -29
28 -47 32 -71 15 -12 -8 -10 -9 8 -4 13 4 22 2 22 -4 0 -6 -10 -11 -22 -12
-22 -1 -22 -1 2 -9 25 -8 25 -8 2 -9 -31 -1 -22 -13 32 -40 29 -16 51 -21 63
-16 10 5 20 8 23 7 3 0 38 3 78 8 71 8 94 4 227 -34 11 -4 27 -2 35 4 13 9 13
11 0 19 -8 5 -18 7 -24 4 -5 -4 -6 -1 -1 7 6 10 4 12 -7 7 -9 -3 -24 1 -35 8
-16 13 -16 14 -1 15 9 0 19 -6 21 -12 3 -7 6 -2 6 12 1 14 4 35 7 46 5 18 0
24 -31 34 -19 6 -43 9 -51 6 -9 -4 -23 3 -33 15 l-18 22 -21 -23 c-21 -22 -30
-23 -89 -4 -15 5 -16 4 -2 -5 9 -6 34 -14 57 -20 41 -9 47 -5 43 22 0 4 6 7
14 7 8 0 15 -7 15 -16 0 -8 -4 -12 -10 -9 -5 3 -10 -1 -10 -10 0 -10 5 -13 12
-9 8 5 9 2 5 -10 -4 -10 -3 -15 3 -11 6 3 10 12 10 19 0 9 14 12 45 11 24 0
47 -4 50 -7 8 -8 -72 -46 -114 -54 -32 -7 -32 -6 -20 14 19 30 8 34 -39 18
-23 -9 -42 -11 -42 -6 0 6 9 10 20 10 41 0 17 17 -70 49 -89 34 -123 55 -40
26 24 -8 45 -13 47 -11 2 2 -26 14 -64 26 -37 13 -72 24 -78 26 -5 2 -17 -1
-25 -6z"/>
<path d="M1485 1255 c-14 -13 -25 -29 -25 -35 0 -18 20 -52 52 -88 20 -23 28
-43 26 -60 -4 -34 -37 -43 -45 -13 -6 24 -23 29 -23 7 0 -21 38 -45 61 -39 24
7 42 47 34 74 -4 10 -22 37 -41 60 -24 29 -34 50 -32 68 4 33 37 42 45 12 3
-12 11 -21 18 -21 22 0 5 37 -21 49 -21 9 -28 8 -49 -14z"/>
<path d="M1271 1256 c-84 -47 -52 -176 44 -176 70 0 117 79 85 141 -12 22 -61
49 -87 49 -10 -1 -29 -7 -42 -14z m96 -32 c21 -32 22 -89 3 -108 -8 -8 -27
-18 -42 -21 -59 -15 -105 88 -61 137 25 28 79 24 100 -8z"/>
<path d="M1618 1263 c24 -5 24 -6 3 -175 -6 -42 -4 -58 5 -62 14 -5 20 23 30
142 6 80 7 82 33 83 l26 1 -25 8 c-14 4 -41 8 -60 8 -22 -1 -26 -2 -12 -5z"/>
<path d="M1769 1225 c-55 -30 -79 -101 -55 -159 28 -68 126 -99 177 -56 29 23
14 26 -30 4 -38 -19 -92 -5 -116 29 -35 50 -7 149 48 172 44 18 76 10 109 -28
30 -33 48 -32 26 2 -28 45 -108 64 -159 36z"/>
<path d="M1091 1221 c-12 -8 -9 -27 19 -120 22 -73 39 -111 48 -111 8 0 12 6
9 13 -2 6 -12 39 -22 71 l-17 60 26 19 c28 20 33 46 14 65 -14 14 -57 16 -77
3z m57 -30 c4 -26 -18 -47 -30 -28 -4 7 -8 22 -8 35 0 32 34 25 38 -7z"/>
<path d="M2039 1173 c-1 -5 -2 -21 -4 -38 -2 -33 -11 -88 -26 -150 -11 -53
-11 -55 5 -55 10 0 20 34 35 115 12 64 19 120 16 125 -7 12 -24 13 -26 3z"/>
<path d="M900 1159 c-13 -6 -26 -12 -28 -14 -3 -3 72 -206 83 -222 4 -7 75 22
75 30 0 5 -7 6 -15 3 -8 -3 -21 -8 -28 -11 -7 -3 -20 16 -35 53 -27 71 -27 70
1 83 20 9 20 9 -6 4 -23 -5 -29 -1 -37 20 -14 37 -13 40 18 52 15 6 20 11 12
11 -8 1 -26 -4 -40 -9z"/>
<path d="M1967 1060 c-31 -49 -53 -92 -49 -94 4 -2 23 22 42 55 19 32 41 59
48 59 7 0 10 4 7 10 -3 5 -1 19 5 31 7 11 10 23 7 25 -2 2 -29 -36 -60 -86z"/>
<path d="M2117 1022 c-26 -59 -47 -110 -47 -114 0 -5 7 -8 15 -8 8 0 15 4 15
10 0 5 19 50 41 100 39 84 61 108 72 78 7 -20 -12 -48 -32 -48 -15 0 -21 -13
-31 -80 -12 -78 -8 -110 10 -80 4 7 11 44 15 82 6 55 10 68 24 68 22 0 41 19
41 42 0 15 -53 59 -70 58 -3 0 -26 -49 -53 -108z"/>
<path d="M780 1103 c0 -5 9 -23 20 -40 19 -32 19 -33 0 -43 -25 -14 -34 -8
-50 30 -12 30 -21 36 -33 24 -3 -4 19 -56 50 -116 38 -76 59 -106 66 -99 7 7
0 29 -23 72 -31 59 -32 63 -15 76 11 7 21 13 25 13 3 0 20 -29 38 -65 29 -59
52 -83 52 -54 0 21 -105 209 -117 209 -7 0 -13 -3 -13 -7z"/>
<path d="M633 1021 c-42 -25 -61 -51 -24 -32 16 9 27 -1 81 -85 37 -56 67 -91
72 -86 5 5 -16 48 -52 103 -55 85 -59 95 -43 106 32 24 8 20 -34 -6z"/>
<path d="M1323 1028 c-35 -5 -63 -13 -63 -17 0 -9 146 11 156 22 9 9 -11 8
-93 -5z"/>
<path d="M2260 948 c-36 -51 -66 -95 -68 -99 -5 -11 49 -29 89 -29 33 0 48 7
75 34 28 28 34 42 34 75 0 58 -30 111 -64 111 -1 0 -31 -42 -66 -92z m110 0
c0 -66 -86 -138 -135 -111 -13 8 -5 24 47 97 56 79 63 86 75 70 7 -10 13 -35
13 -56z"/>
<path d="M1260 755 c0 -30 5 -55 10 -55 6 0 10 11 10 25 0 20 5 25 24 25 19 0
26 -6 29 -27 2 -16 4 -1 4 32 0 33 -2 50 -4 38 -6 -31 -53 -33 -53 -3 0 11 -4
20 -10 20 -5 0 -10 -25 -10 -55z"/>
<path d="M1383 784 c-15 -24 -15 -29 -2 -53 28 -49 109 -32 109 24 0 54 -77
75 -107 29z m71 3 c26 -19 18 -61 -12 -65 -44 -7 -67 32 -36 62 19 19 25 20
48 3z"/>
<path d="M1500 800 c0 -5 7 -10 15 -10 11 0 15 -12 15 -45 0 -25 5 -45 10 -45
6 0 10 19 10 41 0 28 6 46 18 55 15 12 12 13 -25 14 -24 0 -43 -4 -43 -10z"/>
<path d="M1600 755 c0 -54 0 -55 30 -55 34 0 41 17 8 22 -32 5 -35 28 -4 28
14 0 26 5 26 10 0 6 -11 10 -25 10 -14 0 -25 5 -25 10 0 6 11 10 25 10 14 0
25 5 25 10 0 6 -13 10 -30 10 -30 0 -30 -1 -30 -55z"/>
<path d="M1690 755 c0 -54 0 -55 30 -55 17 0 30 5 30 10 0 6 -10 10 -23 10
-20 0 -22 4 -19 45 3 28 0 45 -7 45 -7 0 -11 -22 -11 -55z"/>
<path d="M60 983 c0 -18 44 -66 79 -86 43 -25 39 -14 -5 14 -20 12 -45 36 -55
53 -10 17 -19 26 -19 19z"/>
<path d="M2891 932 c-25 -24 -36 -40 -25 -34 25 13 74 62 74 73 0 11 2 13 -49
-39z"/>
<path d="M2397 614 c-31 -19 -57 -38 -57 -41 0 -3 12 3 27 12 14 10 41 26 60
37 28 17 40 28 30 28 -1 0 -28 -16 -60 -36z"/>
<path d="M2070 409 c-36 -23 -69 -46 -75 -52 -5 -6 1 -4 15 5 14 8 49 30 78
47 44 28 61 41 50 41 -2 0 -32 -19 -68 -41z"/>
<path d="M1434 86 c13 -11 37 -15 70 -15 l51 2 -55 6 c-30 3 -62 10 -70 14 -8
5 -6 1 4 -7z"/>
</g>
</svg>
